<svg xmlns="http://www.w3.org/2000/svg" width="447" height="118" viewBox="0 0 447 118">
  <defs>
    <style>
      .cls-1 {
        fill: #edf2f6;
        fill-rule: evenodd;
        opacity: 0.1;
      }
    </style>
  </defs>
  <path id="decor_pattern_light2.svg" class="cls-1" d="M871.116,6300.03a3.034,3.034,0,1,1-3.034-3.03A3.034,3.034,0,0,1,871.116,6300.03Zm19.127,0a3.034,3.034,0,1,1-3.034-3.03A3.034,3.034,0,0,1,890.243,6300.03Zm19.127,0a3.035,3.035,0,1,1-3.035-3.03A3.035,3.035,0,0,1,909.37,6300.03Zm19.126,0a3.034,3.034,0,1,1-3.034-3.03A3.034,3.034,0,0,1,928.5,6300.03Zm19.127,0a3.035,3.035,0,1,1-3.034-3.03A3.035,3.035,0,0,1,947.623,6300.03Zm19.126,0a3.034,3.034,0,1,1-3.034-3.03A3.034,3.034,0,0,1,966.749,6300.03Zm19.127,0a3.035,3.035,0,1,1-3.035-3.03A3.035,3.035,0,0,1,985.876,6300.03Zm19.124,0a3.033,3.033,0,1,1-3.03-3.03A3.034,3.034,0,0,1,1005,6300.03Zm19.13,0a3.035,3.035,0,1,1-3.04-3.03A3.037,3.037,0,0,1,1024.13,6300.03Zm19.13,0a3.035,3.035,0,1,1-3.04-3.03A3.037,3.037,0,0,1,1043.26,6300.03Zm19.12,0a3.035,3.035,0,1,1-3.03-3.03A3.034,3.034,0,0,1,1062.38,6300.03Zm19.13,0a3.035,3.035,0,1,1-3.04-3.03A3.037,3.037,0,0,1,1081.51,6300.03Zm19.12,0a3.03,3.03,0,1,1-3.03-3.03A3.028,3.028,0,0,1,1100.63,6300.03Zm19.13,0a3.035,3.035,0,1,1-3.03-3.03A3.034,3.034,0,0,1,1119.76,6300.03Zm19.13,0a3.035,3.035,0,1,1-3.04-3.03A3.037,3.037,0,0,1,1138.89,6300.03Zm19.12,0a3.03,3.03,0,1,1-3.03-3.03A3.028,3.028,0,0,1,1158.01,6300.03Zm-286.894,18.65a3.034,3.034,0,1,1-3.034-3.03A3.028,3.028,0,0,1,871.116,6318.68Zm19.127,0a3.034,3.034,0,1,1-3.034-3.03A3.028,3.028,0,0,1,890.243,6318.68Zm19.127,0a3.035,3.035,0,1,1-3.035-3.03A3.028,3.028,0,0,1,909.37,6318.68Zm19.126,0a3.034,3.034,0,1,1-3.034-3.03A3.028,3.028,0,0,1,928.5,6318.68Zm19.127,0a3.035,3.035,0,1,1-3.034-3.03A3.028,3.028,0,0,1,947.623,6318.68Zm19.126,0a3.034,3.034,0,1,1-3.034-3.03A3.028,3.028,0,0,1,966.749,6318.68Zm19.127,0a3.035,3.035,0,1,1-3.035-3.03A3.028,3.028,0,0,1,985.876,6318.68Zm19.124,0a3.033,3.033,0,1,1-3.03-3.03A3.028,3.028,0,0,1,1005,6318.68Zm19.13,0a3.035,3.035,0,1,1-3.04-3.03A3.03,3.03,0,0,1,1024.13,6318.68Zm19.13,0a3.035,3.035,0,1,1-3.04-3.03A3.03,3.03,0,0,1,1043.26,6318.68Zm19.12,0a3.035,3.035,0,1,1-3.03-3.03A3.028,3.028,0,0,1,1062.38,6318.68Zm19.13,0a3.035,3.035,0,1,1-3.04-3.03A3.03,3.03,0,0,1,1081.51,6318.68Zm19.12,0a3.03,3.03,0,1,1-3.03-3.03A3.022,3.022,0,0,1,1100.63,6318.68Zm19.13,0a3.035,3.035,0,1,1-3.03-3.03A3.028,3.028,0,0,1,1119.76,6318.68Zm19.13,0a3.035,3.035,0,1,1-3.04-3.03A3.03,3.03,0,0,1,1138.89,6318.68Zm19.12,0a3.03,3.03,0,1,1-3.03-3.03A3.022,3.022,0,0,1,1158.01,6318.68Zm-286.894,18.66a3.034,3.034,0,1,1-3.034-3.03A3.028,3.028,0,0,1,871.116,6337.34Zm19.127,0a3.034,3.034,0,1,1-3.034-3.03A3.028,3.028,0,0,1,890.243,6337.34Zm19.127,0a3.035,3.035,0,1,1-3.035-3.03A3.028,3.028,0,0,1,909.37,6337.34Zm19.126,0a3.034,3.034,0,1,1-3.034-3.03A3.028,3.028,0,0,1,928.5,6337.34Zm19.127,0a3.035,3.035,0,1,1-3.034-3.03A3.028,3.028,0,0,1,947.623,6337.34Zm19.126,0a3.034,3.034,0,1,1-3.034-3.03A3.028,3.028,0,0,1,966.749,6337.34Zm19.127,0a3.035,3.035,0,1,1-3.035-3.03A3.028,3.028,0,0,1,985.876,6337.34Zm19.124,0a3.033,3.033,0,1,1-3.03-3.03A3.028,3.028,0,0,1,1005,6337.34Zm19.13,0a3.035,3.035,0,1,1-3.04-3.03A3.03,3.03,0,0,1,1024.13,6337.34Zm19.13,0a3.035,3.035,0,1,1-3.04-3.03A3.03,3.03,0,0,1,1043.26,6337.34Zm19.12,0a3.035,3.035,0,1,1-3.03-3.03A3.028,3.028,0,0,1,1062.38,6337.34Zm19.13,0a3.035,3.035,0,1,1-3.04-3.03A3.03,3.03,0,0,1,1081.51,6337.34Zm19.12,0a3.03,3.03,0,1,1-3.03-3.03A3.022,3.022,0,0,1,1100.63,6337.34Zm19.13,0a3.035,3.035,0,1,1-3.03-3.03A3.028,3.028,0,0,1,1119.76,6337.34Zm19.13,0a3.035,3.035,0,1,1-3.04-3.03A3.03,3.03,0,0,1,1138.89,6337.34Zm19.12,0a3.03,3.03,0,1,1-3.03-3.03A3.022,3.022,0,0,1,1158.01,6337.34ZM871.116,6356a3.034,3.034,0,1,1-3.034-3.03A3.034,3.034,0,0,1,871.116,6356Zm19.127,0a3.034,3.034,0,1,1-3.034-3.03A3.034,3.034,0,0,1,890.243,6356Zm19.127,0a3.035,3.035,0,1,1-3.035-3.03A3.035,3.035,0,0,1,909.37,6356Zm19.126,0a3.034,3.034,0,1,1-3.034-3.03A3.034,3.034,0,0,1,928.5,6356Zm19.127,0a3.035,3.035,0,1,1-3.034-3.03A3.035,3.035,0,0,1,947.623,6356Zm19.126,0a3.034,3.034,0,1,1-3.034-3.03A3.034,3.034,0,0,1,966.749,6356Zm19.127,0a3.035,3.035,0,1,1-3.035-3.03A3.035,3.035,0,0,1,985.876,6356Zm19.124,0a3.033,3.033,0,1,1-3.03-3.03A3.034,3.034,0,0,1,1005,6356Zm19.13,0a3.035,3.035,0,1,1-3.04-3.03A3.037,3.037,0,0,1,1024.13,6356Zm19.13,0a3.035,3.035,0,1,1-3.04-3.03A3.037,3.037,0,0,1,1043.26,6356Zm19.12,0a3.035,3.035,0,1,1-3.03-3.03A3.034,3.034,0,0,1,1062.38,6356Zm19.13,0a3.035,3.035,0,1,1-3.04-3.03A3.037,3.037,0,0,1,1081.51,6356Zm19.12,0a3.03,3.03,0,1,1-3.03-3.03A3.028,3.028,0,0,1,1100.63,6356Zm19.13,0a3.035,3.035,0,1,1-3.03-3.03A3.034,3.034,0,0,1,1119.76,6356Zm19.13,0a3.035,3.035,0,1,1-3.04-3.03A3.037,3.037,0,0,1,1138.89,6356Zm19.12,0a3.03,3.03,0,1,1-3.03-3.03A3.028,3.028,0,0,1,1158.01,6356Zm-286.894,18.66a3.034,3.034,0,1,1-3.034-3.03A3.034,3.034,0,0,1,871.116,6374.66Zm19.127,0a3.034,3.034,0,1,1-3.034-3.03A3.034,3.034,0,0,1,890.243,6374.66Zm19.127,0a3.035,3.035,0,1,1-3.035-3.03A3.035,3.035,0,0,1,909.37,6374.66Zm19.126,0a3.034,3.034,0,1,1-3.034-3.03A3.034,3.034,0,0,1,928.5,6374.66Zm19.127,0a3.035,3.035,0,1,1-3.034-3.03A3.035,3.035,0,0,1,947.623,6374.66Zm19.126,0a3.034,3.034,0,1,1-3.034-3.03A3.034,3.034,0,0,1,966.749,6374.66Zm19.127,0a3.035,3.035,0,1,1-3.035-3.03A3.035,3.035,0,0,1,985.876,6374.66Zm19.124,0a3.033,3.033,0,1,1-3.03-3.03A3.034,3.034,0,0,1,1005,6374.66Zm19.13,0a3.035,3.035,0,1,1-3.04-3.03A3.037,3.037,0,0,1,1024.13,6374.66Zm19.13,0a3.035,3.035,0,1,1-3.04-3.03A3.037,3.037,0,0,1,1043.26,6374.66Zm19.12,0a3.035,3.035,0,1,1-3.03-3.03A3.034,3.034,0,0,1,1062.38,6374.66Zm19.13,0a3.035,3.035,0,1,1-3.04-3.03A3.037,3.037,0,0,1,1081.51,6374.66Zm19.12,0a3.03,3.03,0,1,1-3.03-3.03A3.028,3.028,0,0,1,1100.63,6374.66Zm19.13,0a3.035,3.035,0,1,1-3.03-3.03A3.034,3.034,0,0,1,1119.76,6374.66Zm19.13,0a3.035,3.035,0,1,1-3.04-3.03A3.037,3.037,0,0,1,1138.89,6374.66Zm19.12,0a3.03,3.03,0,1,1-3.03-3.03A3.028,3.028,0,0,1,1158.01,6374.66Zm-286.894,18.66a3.034,3.034,0,1,1-3.034-3.03A3.034,3.034,0,0,1,871.116,6393.32Zm19.127,0a3.034,3.034,0,1,1-3.034-3.03A3.034,3.034,0,0,1,890.243,6393.32Zm19.127,0a3.035,3.035,0,1,1-3.035-3.03A3.035,3.035,0,0,1,909.37,6393.32Zm19.126,0a3.034,3.034,0,1,1-3.034-3.03A3.034,3.034,0,0,1,928.5,6393.32Zm19.127,0a3.035,3.035,0,1,1-3.034-3.03A3.035,3.035,0,0,1,947.623,6393.32Zm19.126,0a3.034,3.034,0,1,1-3.034-3.03A3.034,3.034,0,0,1,966.749,6393.32Zm19.127,0a3.035,3.035,0,1,1-3.035-3.03A3.035,3.035,0,0,1,985.876,6393.32Zm19.124,0a3.033,3.033,0,1,1-3.03-3.03A3.034,3.034,0,0,1,1005,6393.32Zm19.13,0a3.035,3.035,0,1,1-3.04-3.03A3.037,3.037,0,0,1,1024.13,6393.32Zm19.13,0a3.035,3.035,0,1,1-3.04-3.03A3.037,3.037,0,0,1,1043.26,6393.32Zm19.12,0a3.035,3.035,0,1,1-3.03-3.03A3.034,3.034,0,0,1,1062.38,6393.32Zm19.13,0a3.035,3.035,0,1,1-3.04-3.03A3.037,3.037,0,0,1,1081.51,6393.32Zm19.12,0a3.03,3.03,0,1,1-3.03-3.03A3.028,3.028,0,0,1,1100.63,6393.32Zm19.13,0a3.035,3.035,0,1,1-3.03-3.03A3.034,3.034,0,0,1,1119.76,6393.32Zm19.13,0a3.035,3.035,0,1,1-3.04-3.03A3.037,3.037,0,0,1,1138.89,6393.32Zm19.12,0a3.03,3.03,0,1,1-3.03-3.03A3.028,3.028,0,0,1,1158.01,6393.32Zm-286.894,18.65a3.034,3.034,0,1,1-3.034-3.02A3.028,3.028,0,0,1,871.116,6411.97Zm19.127,0a3.034,3.034,0,1,1-3.034-3.02A3.028,3.028,0,0,1,890.243,6411.97Zm19.127,0a3.035,3.035,0,1,1-3.035-3.02A3.028,3.028,0,0,1,909.37,6411.97Zm19.126,0a3.034,3.034,0,1,1-3.034-3.02A3.028,3.028,0,0,1,928.5,6411.97Zm19.127,0a3.035,3.035,0,1,1-3.034-3.02A3.028,3.028,0,0,1,947.623,6411.97Zm19.126,0a3.034,3.034,0,1,1-3.034-3.02A3.028,3.028,0,0,1,966.749,6411.97Zm19.127,0a3.035,3.035,0,1,1-3.035-3.02A3.028,3.028,0,0,1,985.876,6411.97Zm19.124,0a3.033,3.033,0,1,1-3.03-3.02A3.028,3.028,0,0,1,1005,6411.97Zm19.13,0a3.035,3.035,0,1,1-3.04-3.02A3.03,3.03,0,0,1,1024.13,6411.97Zm19.13,0a3.035,3.035,0,1,1-3.04-3.02A3.03,3.03,0,0,1,1043.26,6411.97Zm19.12,0a3.035,3.035,0,1,1-3.03-3.02A3.028,3.028,0,0,1,1062.38,6411.97Zm19.13,0a3.035,3.035,0,1,1-3.04-3.02A3.03,3.03,0,0,1,1081.51,6411.97Zm19.12,0a3.03,3.03,0,1,1-3.03-3.02A3.022,3.022,0,0,1,1100.63,6411.97Zm19.13,0a3.035,3.035,0,1,1-3.03-3.02A3.028,3.028,0,0,1,1119.76,6411.97Zm19.13,0a3.035,3.035,0,1,1-3.04-3.02A3.03,3.03,0,0,1,1138.89,6411.97Zm19.12,0a3.03,3.03,0,1,1-3.03-3.02A3.022,3.022,0,0,1,1158.01,6411.97ZM717.074,6300.03a3.035,3.035,0,1,1-3.035-3.03A3.035,3.035,0,0,1,717.074,6300.03Zm19.126,0a3.034,3.034,0,1,1-3.034-3.03A3.034,3.034,0,0,1,736.2,6300.03Zm19.127,0a3.035,3.035,0,1,1-3.035-3.03A3.035,3.035,0,0,1,755.327,6300.03Zm19.126,0a3.034,3.034,0,1,1-3.034-3.03A3.034,3.034,0,0,1,774.453,6300.03Zm19.127,0a3.035,3.035,0,1,1-3.034-3.03A3.035,3.035,0,0,1,793.58,6300.03Zm19.126,0a3.034,3.034,0,1,1-3.034-3.03A3.034,3.034,0,0,1,812.706,6300.03Zm19.127,0A3.035,3.035,0,1,1,828.8,6297,3.035,3.035,0,0,1,831.833,6300.03Zm19.126,0a3.034,3.034,0,1,1-3.034-3.03A3.034,3.034,0,0,1,850.959,6300.03Zm-133.885,18.65a3.035,3.035,0,1,1-3.035-3.03A3.028,3.028,0,0,1,717.074,6318.68Zm19.126,0a3.034,3.034,0,1,1-3.034-3.03A3.028,3.028,0,0,1,736.2,6318.68Zm19.127,0a3.035,3.035,0,1,1-3.035-3.03A3.028,3.028,0,0,1,755.327,6318.68Zm19.126,0a3.034,3.034,0,1,1-3.034-3.03A3.028,3.028,0,0,1,774.453,6318.68Zm19.127,0a3.035,3.035,0,1,1-3.034-3.03A3.028,3.028,0,0,1,793.58,6318.68Zm19.126,0a3.034,3.034,0,1,1-3.034-3.03A3.028,3.028,0,0,1,812.706,6318.68Zm19.127,0a3.035,3.035,0,1,1-3.034-3.03A3.028,3.028,0,0,1,831.833,6318.68Zm19.126,0a3.034,3.034,0,1,1-3.034-3.03A3.028,3.028,0,0,1,850.959,6318.68Zm-133.885,18.66a3.035,3.035,0,1,1-3.035-3.03A3.028,3.028,0,0,1,717.074,6337.34Zm19.126,0a3.034,3.034,0,1,1-3.034-3.03A3.028,3.028,0,0,1,736.2,6337.34Zm19.127,0a3.035,3.035,0,1,1-3.035-3.03A3.028,3.028,0,0,1,755.327,6337.34Zm19.126,0a3.034,3.034,0,1,1-3.034-3.03A3.028,3.028,0,0,1,774.453,6337.34Zm19.127,0a3.035,3.035,0,1,1-3.034-3.03A3.028,3.028,0,0,1,793.58,6337.34Zm19.126,0a3.034,3.034,0,1,1-3.034-3.03A3.028,3.028,0,0,1,812.706,6337.34Zm19.127,0a3.035,3.035,0,1,1-3.034-3.03A3.028,3.028,0,0,1,831.833,6337.34Zm19.126,0a3.034,3.034,0,1,1-3.034-3.03A3.028,3.028,0,0,1,850.959,6337.34ZM717.074,6356a3.035,3.035,0,1,1-3.035-3.03A3.035,3.035,0,0,1,717.074,6356Zm19.126,0a3.034,3.034,0,1,1-3.034-3.03A3.034,3.034,0,0,1,736.2,6356Zm19.127,0a3.035,3.035,0,1,1-3.035-3.03A3.035,3.035,0,0,1,755.327,6356Zm19.126,0a3.034,3.034,0,1,1-3.034-3.03A3.034,3.034,0,0,1,774.453,6356Zm19.127,0a3.035,3.035,0,1,1-3.034-3.03A3.035,3.035,0,0,1,793.58,6356Zm19.126,0a3.034,3.034,0,1,1-3.034-3.03A3.034,3.034,0,0,1,812.706,6356Zm19.127,0a3.035,3.035,0,1,1-3.034-3.03A3.035,3.035,0,0,1,831.833,6356Zm19.126,0a3.034,3.034,0,1,1-3.034-3.03A3.034,3.034,0,0,1,850.959,6356Zm-133.885,18.66a3.035,3.035,0,1,1-3.035-3.03A3.035,3.035,0,0,1,717.074,6374.66Zm19.126,0a3.034,3.034,0,1,1-3.034-3.03A3.034,3.034,0,0,1,736.2,6374.66Zm19.127,0a3.035,3.035,0,1,1-3.035-3.03A3.035,3.035,0,0,1,755.327,6374.66Zm19.126,0a3.034,3.034,0,1,1-3.034-3.03A3.034,3.034,0,0,1,774.453,6374.66Zm19.127,0a3.035,3.035,0,1,1-3.034-3.03A3.035,3.035,0,0,1,793.58,6374.66Zm19.126,0a3.034,3.034,0,1,1-3.034-3.03A3.034,3.034,0,0,1,812.706,6374.66Zm19.127,0a3.035,3.035,0,1,1-3.034-3.03A3.035,3.035,0,0,1,831.833,6374.66Zm19.126,0a3.034,3.034,0,1,1-3.034-3.03A3.034,3.034,0,0,1,850.959,6374.66Zm-133.885,18.66a3.035,3.035,0,1,1-3.035-3.03A3.035,3.035,0,0,1,717.074,6393.32Zm19.126,0a3.034,3.034,0,1,1-3.034-3.03A3.034,3.034,0,0,1,736.2,6393.32Zm19.127,0a3.035,3.035,0,1,1-3.035-3.03A3.035,3.035,0,0,1,755.327,6393.32Zm19.126,0a3.034,3.034,0,1,1-3.034-3.03A3.034,3.034,0,0,1,774.453,6393.32Zm19.127,0a3.035,3.035,0,1,1-3.034-3.03A3.035,3.035,0,0,1,793.58,6393.32Zm19.126,0a3.034,3.034,0,1,1-3.034-3.03A3.034,3.034,0,0,1,812.706,6393.32Zm19.127,0a3.035,3.035,0,1,1-3.034-3.03A3.035,3.035,0,0,1,831.833,6393.32Zm19.126,0a3.034,3.034,0,1,1-3.034-3.03A3.034,3.034,0,0,1,850.959,6393.32Zm-133.885,18.65a3.035,3.035,0,1,1-3.035-3.02A3.028,3.028,0,0,1,717.074,6411.97Zm19.126,0a3.034,3.034,0,1,1-3.034-3.02A3.028,3.028,0,0,1,736.2,6411.97Zm19.127,0a3.035,3.035,0,1,1-3.035-3.02A3.028,3.028,0,0,1,755.327,6411.97Zm19.126,0a3.034,3.034,0,1,1-3.034-3.02A3.028,3.028,0,0,1,774.453,6411.97Zm19.127,0a3.035,3.035,0,1,1-3.034-3.02A3.028,3.028,0,0,1,793.58,6411.97Zm19.126,0a3.034,3.034,0,1,1-3.034-3.02A3.028,3.028,0,0,1,812.706,6411.97Zm19.127,0a3.035,3.035,0,1,1-3.034-3.02A3.028,3.028,0,0,1,831.833,6411.97Zm19.126,0a3.034,3.034,0,1,1-3.034-3.02A3.028,3.028,0,0,1,850.959,6411.97Z" transform="translate(-711 -6297)"/>
</svg>
