<svg id="decor_pattern2.svg" xmlns="http://www.w3.org/2000/svg" width="1741" height="43.53" viewBox="0 0 1741 43.53">
  <defs>
    <style>
      .cls-1 {
        fill: #f5f5f5;
        fill-rule: evenodd;
      }
    </style>
  </defs>
  <path id="Фигура_17_копия_7" data-name="Фигура 17 копия 7" class="cls-1" d="M1524.07,1567.04a3.03,3.03,0,1,1-3.03-3.04A3.037,3.037,0,0,1,1524.07,1567.04Zm19.12,0a3.03,3.03,0,1,1-3.03-3.04A3.03,3.03,0,0,1,1543.19,1567.04Zm19.12,0a3.03,3.03,0,1,1-3.03-3.04A3.03,3.03,0,0,1,1562.31,1567.04Zm19.13,0a3.035,3.035,0,1,1-3.04-3.04A3.039,3.039,0,0,1,1581.44,1567.04Zm19.12,0a3.035,3.035,0,1,1-3.04-3.04A3.039,3.039,0,0,1,1600.56,1567.04Zm19.12,0a3.035,3.035,0,1,1-3.04-3.04A3.039,3.039,0,0,1,1619.68,1567.04Zm19.12,0a3.035,3.035,0,1,1-3.03-3.04A3.037,3.037,0,0,1,1638.8,1567.04Zm19.12,0a3.035,3.035,0,1,1-3.03-3.04A3.037,3.037,0,0,1,1657.92,1567.04Zm19.12,0a3.035,3.035,0,1,1-3.03-3.04A3.037,3.037,0,0,1,1677.04,1567.04Zm19.12,0a3.03,3.03,0,1,1-3.03-3.04A3.037,3.037,0,0,1,1696.16,1567.04Zm19.12,0a3.03,3.03,0,1,1-3.03-3.04A3.03,3.03,0,0,1,1715.28,1567.04Zm19.13,0a3.035,3.035,0,1,1-3.04-3.04A3.039,3.039,0,0,1,1734.41,1567.04Zm19.12,0a3.035,3.035,0,1,1-3.04-3.04A3.039,3.039,0,0,1,1753.53,1567.04Zm19.12,0a3.035,3.035,0,1,1-3.04-3.04A3.039,3.039,0,0,1,1772.65,1567.04Zm19.12,0a3.035,3.035,0,1,1-3.03-3.04A3.037,3.037,0,0,1,1791.77,1567.04Zm19.12,0a3.035,3.035,0,1,1-3.03-3.04A3.037,3.037,0,0,1,1810.89,1567.04Zm19.12,0a3.035,3.035,0,1,1-3.03-3.04A3.037,3.037,0,0,1,1830.01,1567.04Zm-305.94,18.73a3.03,3.03,0,1,1-3.03-3.05A3.043,3.043,0,0,1,1524.07,1585.77Zm19.12,0a3.03,3.03,0,1,1-3.03-3.05A3.037,3.037,0,0,1,1543.19,1585.77Zm19.12,0a3.03,3.03,0,1,1-3.03-3.05A3.037,3.037,0,0,1,1562.31,1585.77Zm19.13,0a3.035,3.035,0,1,1-3.04-3.05A3.045,3.045,0,0,1,1581.44,1585.77Zm19.12,0a3.035,3.035,0,1,1-3.04-3.05A3.045,3.045,0,0,1,1600.56,1585.77Zm19.12,0a3.035,3.035,0,1,1-3.04-3.05A3.045,3.045,0,0,1,1619.68,1585.77Zm19.12,0a3.035,3.035,0,1,1-3.03-3.05A3.043,3.043,0,0,1,1638.8,1585.77Zm19.12,0a3.035,3.035,0,1,1-3.03-3.05A3.043,3.043,0,0,1,1657.92,1585.77Zm19.12,0a3.035,3.035,0,1,1-3.03-3.05A3.043,3.043,0,0,1,1677.04,1585.77Zm19.12,0a3.03,3.03,0,1,1-3.03-3.05A3.043,3.043,0,0,1,1696.16,1585.77Zm19.12,0a3.03,3.03,0,1,1-3.03-3.05A3.037,3.037,0,0,1,1715.28,1585.77Zm19.13,0a3.035,3.035,0,1,1-3.04-3.05A3.045,3.045,0,0,1,1734.41,1585.77Zm19.12,0a3.035,3.035,0,1,1-3.04-3.05A3.045,3.045,0,0,1,1753.53,1585.77Zm19.12,0a3.035,3.035,0,1,1-3.04-3.05A3.045,3.045,0,0,1,1772.65,1585.77Zm19.12,0a3.035,3.035,0,1,1-3.03-3.05A3.043,3.043,0,0,1,1791.77,1585.77Zm19.12,0a3.035,3.035,0,1,1-3.03-3.05A3.043,3.043,0,0,1,1810.89,1585.77Zm19.12,0a3.035,3.035,0,1,1-3.03-3.05A3.043,3.043,0,0,1,1830.01,1585.77Zm-305.94,18.72a3.03,3.03,0,1,1-3.03-3.04A3.037,3.037,0,0,1,1524.07,1604.49Zm19.12,0a3.03,3.03,0,1,1-3.03-3.04A3.03,3.03,0,0,1,1543.19,1604.49Zm19.12,0a3.03,3.03,0,1,1-3.03-3.04A3.03,3.03,0,0,1,1562.31,1604.49Zm19.13,0a3.035,3.035,0,1,1-3.04-3.04A3.039,3.039,0,0,1,1581.44,1604.49Zm19.12,0a3.035,3.035,0,1,1-3.04-3.04A3.039,3.039,0,0,1,1600.56,1604.49Zm19.12,0a3.035,3.035,0,1,1-3.04-3.04A3.039,3.039,0,0,1,1619.68,1604.49Zm19.12,0a3.035,3.035,0,1,1-3.03-3.04A3.037,3.037,0,0,1,1638.8,1604.49Zm19.12,0a3.035,3.035,0,1,1-3.03-3.04A3.037,3.037,0,0,1,1657.92,1604.49Zm19.12,0a3.035,3.035,0,1,1-3.03-3.04A3.037,3.037,0,0,1,1677.04,1604.49Zm19.12,0a3.03,3.03,0,1,1-3.03-3.04A3.037,3.037,0,0,1,1696.16,1604.49Zm19.12,0a3.03,3.03,0,1,1-3.03-3.04A3.03,3.03,0,0,1,1715.28,1604.49Zm19.13,0a3.035,3.035,0,1,1-3.04-3.04A3.039,3.039,0,0,1,1734.41,1604.49Zm19.12,0a3.035,3.035,0,1,1-3.04-3.04A3.039,3.039,0,0,1,1753.53,1604.49Zm19.12,0a3.035,3.035,0,1,1-3.04-3.04A3.039,3.039,0,0,1,1772.65,1604.49Zm19.12,0a3.035,3.035,0,1,1-3.03-3.04A3.037,3.037,0,0,1,1791.77,1604.49Zm19.12,0a3.035,3.035,0,1,1-3.03-3.04A3.037,3.037,0,0,1,1810.89,1604.49Zm19.12,0a3.035,3.035,0,1,1-3.03-3.04A3.037,3.037,0,0,1,1830.01,1604.49Z" transform="translate(-89 -1564)"/>
  <path id="Фигура_17_копия_8" data-name="Фигура 17 копия 8" class="cls-1" d="M95.072,1567.04a3.033,3.033,0,1,1-3.033-3.04A3.036,3.036,0,0,1,95.072,1567.04Zm19.121,0a3.033,3.033,0,1,1-3.033-3.04A3.036,3.036,0,0,1,114.193,1567.04Zm19.122,0a3.034,3.034,0,1,1-3.034-3.04A3.036,3.036,0,0,1,133.315,1567.04Zm19.121,0A3.034,3.034,0,1,1,149.4,1564,3.036,3.036,0,0,1,152.436,1567.04Zm19.121,0a3.034,3.034,0,1,1-3.033-3.04A3.036,3.036,0,0,1,171.557,1567.04Zm19.121,0a3.034,3.034,0,1,1-3.033-3.04A3.036,3.036,0,0,1,190.678,1567.04Zm19.121,0a3.033,3.033,0,1,1-3.033-3.04A3.036,3.036,0,0,1,209.8,1567.04Zm19.121,0a3.033,3.033,0,1,1-3.033-3.04A3.036,3.036,0,0,1,228.92,1567.04Zm19.122,0a3.034,3.034,0,1,1-3.034-3.04A3.037,3.037,0,0,1,248.042,1567.04Zm19.121,0a3.034,3.034,0,1,1-3.034-3.04A3.037,3.037,0,0,1,267.163,1567.04Zm19.121,0a3.034,3.034,0,1,1-3.034-3.04A3.036,3.036,0,0,1,286.284,1567.04Zm19.121,0a3.034,3.034,0,1,1-3.033-3.04A3.036,3.036,0,0,1,305.4,1567.04Zm19.121,0a3.033,3.033,0,1,1-3.033-3.04A3.036,3.036,0,0,1,324.526,1567.04Zm19.121,0a3.033,3.033,0,1,1-3.033-3.04A3.036,3.036,0,0,1,343.647,1567.04Zm19.121,0a3.033,3.033,0,1,1-3.033-3.04A3.036,3.036,0,0,1,362.768,1567.04Zm19.122,0a3.034,3.034,0,1,1-3.034-3.04A3.036,3.036,0,0,1,381.89,1567.04Zm19.121,0a3.034,3.034,0,1,1-3.034-3.04A3.036,3.036,0,0,1,401.011,1567.04ZM95.072,1585.77a3.033,3.033,0,1,1-3.033-3.05A3.042,3.042,0,0,1,95.072,1585.77Zm19.121,0a3.033,3.033,0,1,1-3.033-3.05A3.042,3.042,0,0,1,114.193,1585.77Zm19.122,0a3.034,3.034,0,1,1-3.034-3.05A3.043,3.043,0,0,1,133.315,1585.77Zm19.121,0a3.034,3.034,0,1,1-3.034-3.05A3.043,3.043,0,0,1,152.436,1585.77Zm19.121,0a3.034,3.034,0,1,1-3.033-3.05A3.042,3.042,0,0,1,171.557,1585.77Zm19.121,0a3.034,3.034,0,1,1-3.033-3.05A3.042,3.042,0,0,1,190.678,1585.77Zm19.121,0a3.033,3.033,0,1,1-3.033-3.05A3.042,3.042,0,0,1,209.8,1585.77Zm19.121,0a3.033,3.033,0,1,1-3.033-3.05A3.042,3.042,0,0,1,228.92,1585.77Zm19.122,0a3.034,3.034,0,1,1-3.034-3.05A3.043,3.043,0,0,1,248.042,1585.77Zm19.121,0a3.034,3.034,0,1,1-3.034-3.05A3.043,3.043,0,0,1,267.163,1585.77Zm19.121,0a3.034,3.034,0,1,1-3.034-3.05A3.043,3.043,0,0,1,286.284,1585.77Zm19.121,0a3.034,3.034,0,1,1-3.033-3.05A3.042,3.042,0,0,1,305.4,1585.77Zm19.121,0a3.033,3.033,0,1,1-3.033-3.05A3.042,3.042,0,0,1,324.526,1585.77Zm19.121,0a3.033,3.033,0,1,1-3.033-3.05A3.042,3.042,0,0,1,343.647,1585.77Zm19.121,0a3.033,3.033,0,1,1-3.033-3.05A3.042,3.042,0,0,1,362.768,1585.77Zm19.122,0a3.034,3.034,0,1,1-3.034-3.05A3.043,3.043,0,0,1,381.89,1585.77Zm19.121,0a3.034,3.034,0,1,1-3.034-3.05A3.043,3.043,0,0,1,401.011,1585.77ZM95.072,1604.49a3.033,3.033,0,1,1-3.033-3.04A3.036,3.036,0,0,1,95.072,1604.49Zm19.121,0a3.033,3.033,0,1,1-3.033-3.04A3.036,3.036,0,0,1,114.193,1604.49Zm19.122,0a3.034,3.034,0,1,1-3.034-3.04A3.036,3.036,0,0,1,133.315,1604.49Zm19.121,0a3.034,3.034,0,1,1-3.034-3.04A3.036,3.036,0,0,1,152.436,1604.49Zm19.121,0a3.034,3.034,0,1,1-3.033-3.04A3.036,3.036,0,0,1,171.557,1604.49Zm19.121,0a3.034,3.034,0,1,1-3.033-3.04A3.036,3.036,0,0,1,190.678,1604.49Zm19.121,0a3.033,3.033,0,1,1-3.033-3.04A3.036,3.036,0,0,1,209.8,1604.49Zm19.121,0a3.033,3.033,0,1,1-3.033-3.04A3.036,3.036,0,0,1,228.92,1604.49Zm19.122,0a3.034,3.034,0,1,1-3.034-3.04A3.037,3.037,0,0,1,248.042,1604.49Zm19.121,0a3.034,3.034,0,1,1-3.034-3.04A3.037,3.037,0,0,1,267.163,1604.49Zm19.121,0a3.034,3.034,0,1,1-3.034-3.04A3.036,3.036,0,0,1,286.284,1604.49Zm19.121,0a3.034,3.034,0,1,1-3.033-3.04A3.036,3.036,0,0,1,305.4,1604.49Zm19.121,0a3.033,3.033,0,1,1-3.033-3.04A3.036,3.036,0,0,1,324.526,1604.49Zm19.121,0a3.033,3.033,0,1,1-3.033-3.04A3.036,3.036,0,0,1,343.647,1604.49Zm19.121,0a3.033,3.033,0,1,1-3.033-3.04A3.036,3.036,0,0,1,362.768,1604.49Zm19.122,0a3.034,3.034,0,1,1-3.034-3.04A3.036,3.036,0,0,1,381.89,1604.49Zm19.121,0a3.034,3.034,0,1,1-3.034-3.04A3.036,3.036,0,0,1,401.011,1604.49Z" transform="translate(-89 -1564)"/>
</svg>
