<svg xmlns="http://www.w3.org/2000/svg" width="312" height="287" viewBox="0 0 312 287">
  <defs>
    <style>
      .cls-1 {
        fill: #f5f5f5;
        fill-rule: evenodd;
      }
    </style>
  </defs>
  <path id="decor.svg" class="cls-1" d="M315.072,3374.04a3.034,3.034,0,1,1-3.033-3.04A3.036,3.036,0,0,1,315.072,3374.04Zm19.121,0a3.033,3.033,0,1,1-3.033-3.04A3.035,3.035,0,0,1,334.193,3374.04Zm19.122,0a3.034,3.034,0,1,1-3.034-3.04A3.036,3.036,0,0,1,353.315,3374.04Zm19.121,0A3.034,3.034,0,1,1,369.4,3371,3.036,3.036,0,0,1,372.436,3374.04Zm19.121,0a3.034,3.034,0,1,1-3.033-3.04A3.036,3.036,0,0,1,391.557,3374.04Zm19.121,0a3.034,3.034,0,1,1-3.033-3.04A3.036,3.036,0,0,1,410.678,3374.04Zm19.121,0a3.034,3.034,0,1,1-3.033-3.04A3.036,3.036,0,0,1,429.8,3374.04Zm19.121,0a3.033,3.033,0,1,1-3.033-3.04A3.036,3.036,0,0,1,448.92,3374.04Zm19.122,0a3.034,3.034,0,1,1-3.034-3.04A3.037,3.037,0,0,1,468.042,3374.04Zm19.121,0a3.034,3.034,0,1,1-3.034-3.04A3.037,3.037,0,0,1,487.163,3374.04Zm19.121,0a3.034,3.034,0,1,1-3.034-3.04A3.036,3.036,0,0,1,506.284,3374.04Zm19.121,0a3.034,3.034,0,1,1-3.033-3.04A3.036,3.036,0,0,1,525.405,3374.04Zm19.121,0a3.033,3.033,0,1,1-3.033-3.04A3.036,3.036,0,0,1,544.526,3374.04Zm19.121,0a3.033,3.033,0,1,1-3.033-3.04A3.036,3.036,0,0,1,563.647,3374.04Zm19.122,0a3.034,3.034,0,1,1-3.034-3.04A3.037,3.037,0,0,1,582.769,3374.04Zm19.121,0a3.034,3.034,0,1,1-3.034-3.04A3.037,3.037,0,0,1,601.89,3374.04Zm19.121,0a3.034,3.034,0,1,1-3.034-3.04A3.036,3.036,0,0,1,621.011,3374.04Zm-305.939,18.73a3.034,3.034,0,1,1-3.033-3.05A3.042,3.042,0,0,1,315.072,3392.77Zm19.121,0a3.033,3.033,0,1,1-3.033-3.05A3.042,3.042,0,0,1,334.193,3392.77Zm19.122,0a3.034,3.034,0,1,1-3.034-3.05A3.043,3.043,0,0,1,353.315,3392.77Zm19.121,0a3.034,3.034,0,1,1-3.034-3.05A3.043,3.043,0,0,1,372.436,3392.77Zm19.121,0a3.034,3.034,0,1,1-3.033-3.05A3.042,3.042,0,0,1,391.557,3392.77Zm19.121,0a3.034,3.034,0,1,1-3.033-3.05A3.042,3.042,0,0,1,410.678,3392.77Zm19.121,0a3.034,3.034,0,1,1-3.033-3.05A3.042,3.042,0,0,1,429.8,3392.77Zm19.121,0a3.033,3.033,0,1,1-3.033-3.05A3.042,3.042,0,0,1,448.92,3392.77Zm19.122,0a3.034,3.034,0,1,1-3.034-3.05A3.043,3.043,0,0,1,468.042,3392.77Zm19.121,0a3.034,3.034,0,1,1-3.034-3.05A3.043,3.043,0,0,1,487.163,3392.77Zm19.121,0a3.034,3.034,0,1,1-3.034-3.05A3.043,3.043,0,0,1,506.284,3392.77Zm19.121,0a3.034,3.034,0,1,1-3.033-3.05A3.042,3.042,0,0,1,525.405,3392.77Zm19.121,0a3.033,3.033,0,1,1-3.033-3.05A3.042,3.042,0,0,1,544.526,3392.77Zm19.121,0a3.033,3.033,0,1,1-3.033-3.05A3.042,3.042,0,0,1,563.647,3392.77Zm19.122,0a3.034,3.034,0,1,1-3.034-3.05A3.043,3.043,0,0,1,582.769,3392.77Zm19.121,0a3.034,3.034,0,1,1-3.034-3.05A3.043,3.043,0,0,1,601.89,3392.77Zm19.121,0a3.034,3.034,0,1,1-3.034-3.05A3.043,3.043,0,0,1,621.011,3392.77Zm-305.939,18.72a3.034,3.034,0,1,1-3.033-3.04A3.036,3.036,0,0,1,315.072,3411.49Zm19.121,0a3.033,3.033,0,1,1-3.033-3.04A3.035,3.035,0,0,1,334.193,3411.49Zm19.122,0a3.034,3.034,0,1,1-3.034-3.04A3.036,3.036,0,0,1,353.315,3411.49Zm19.121,0a3.034,3.034,0,1,1-3.034-3.04A3.036,3.036,0,0,1,372.436,3411.49Zm19.121,0a3.034,3.034,0,1,1-3.033-3.04A3.036,3.036,0,0,1,391.557,3411.49Zm19.121,0a3.034,3.034,0,1,1-3.033-3.04A3.036,3.036,0,0,1,410.678,3411.49Zm19.121,0a3.034,3.034,0,1,1-3.033-3.04A3.036,3.036,0,0,1,429.8,3411.49Zm19.121,0a3.033,3.033,0,1,1-3.033-3.04A3.036,3.036,0,0,1,448.92,3411.49Zm19.122,0a3.034,3.034,0,1,1-3.034-3.04A3.037,3.037,0,0,1,468.042,3411.49Zm19.121,0a3.034,3.034,0,1,1-3.034-3.04A3.037,3.037,0,0,1,487.163,3411.49Zm19.121,0a3.034,3.034,0,1,1-3.034-3.04A3.036,3.036,0,0,1,506.284,3411.49Zm19.121,0a3.034,3.034,0,1,1-3.033-3.04A3.036,3.036,0,0,1,525.405,3411.49Zm19.121,0a3.033,3.033,0,1,1-3.033-3.04A3.036,3.036,0,0,1,544.526,3411.49Zm19.121,0a3.033,3.033,0,1,1-3.033-3.04A3.036,3.036,0,0,1,563.647,3411.49Zm19.122,0a3.034,3.034,0,1,1-3.034-3.04A3.037,3.037,0,0,1,582.769,3411.49Zm19.121,0a3.034,3.034,0,1,1-3.034-3.04A3.037,3.037,0,0,1,601.89,3411.49Zm19.121,0a3.034,3.034,0,1,1-3.034-3.04A3.036,3.036,0,0,1,621.011,3411.49Zm-305.939,18.73a3.034,3.034,0,1,1-3.033-3.04A3.036,3.036,0,0,1,315.072,3430.22Zm19.121,0a3.033,3.033,0,1,1-3.033-3.04A3.035,3.035,0,0,1,334.193,3430.22Zm19.122,0a3.034,3.034,0,1,1-3.034-3.04A3.036,3.036,0,0,1,353.315,3430.22Zm19.121,0a3.034,3.034,0,1,1-3.034-3.04A3.036,3.036,0,0,1,372.436,3430.22Zm19.121,0a3.034,3.034,0,1,1-3.033-3.04A3.036,3.036,0,0,1,391.557,3430.22Zm19.121,0a3.034,3.034,0,1,1-3.033-3.04A3.036,3.036,0,0,1,410.678,3430.22Zm19.121,0a3.034,3.034,0,1,1-3.033-3.04A3.036,3.036,0,0,1,429.8,3430.22Zm19.121,0a3.033,3.033,0,1,1-3.033-3.04A3.036,3.036,0,0,1,448.92,3430.22Zm19.122,0a3.034,3.034,0,1,1-3.034-3.04A3.037,3.037,0,0,1,468.042,3430.22Zm19.121,0a3.034,3.034,0,1,1-3.034-3.04A3.037,3.037,0,0,1,487.163,3430.22Zm19.121,0a3.034,3.034,0,1,1-3.034-3.04A3.036,3.036,0,0,1,506.284,3430.22Zm19.121,0a3.034,3.034,0,1,1-3.033-3.04A3.036,3.036,0,0,1,525.405,3430.22Zm19.121,0a3.033,3.033,0,1,1-3.033-3.04A3.036,3.036,0,0,1,544.526,3430.22Zm19.121,0a3.033,3.033,0,1,1-3.033-3.04A3.036,3.036,0,0,1,563.647,3430.22Zm19.122,0a3.034,3.034,0,1,1-3.034-3.04A3.037,3.037,0,0,1,582.769,3430.22Zm19.121,0a3.034,3.034,0,1,1-3.034-3.04A3.037,3.037,0,0,1,601.89,3430.22Zm19.121,0a3.034,3.034,0,1,1-3.034-3.04A3.036,3.036,0,0,1,621.011,3430.22Zm-305.939,18.73a3.034,3.034,0,1,1-3.033-3.04A3.036,3.036,0,0,1,315.072,3448.95Zm19.121,0a3.033,3.033,0,1,1-3.033-3.04A3.035,3.035,0,0,1,334.193,3448.95Zm19.122,0a3.034,3.034,0,1,1-3.034-3.04A3.036,3.036,0,0,1,353.315,3448.95Zm19.121,0a3.034,3.034,0,1,1-3.034-3.04A3.036,3.036,0,0,1,372.436,3448.95Zm19.121,0a3.034,3.034,0,1,1-3.033-3.04A3.036,3.036,0,0,1,391.557,3448.95Zm19.121,0a3.034,3.034,0,1,1-3.033-3.04A3.036,3.036,0,0,1,410.678,3448.95Zm19.121,0a3.034,3.034,0,1,1-3.033-3.04A3.036,3.036,0,0,1,429.8,3448.95Zm19.121,0a3.033,3.033,0,1,1-3.033-3.04A3.036,3.036,0,0,1,448.92,3448.95Zm19.122,0a3.034,3.034,0,1,1-3.034-3.04A3.037,3.037,0,0,1,468.042,3448.95Zm19.121,0a3.034,3.034,0,1,1-3.034-3.04A3.037,3.037,0,0,1,487.163,3448.95Zm19.121,0a3.034,3.034,0,1,1-3.034-3.04A3.036,3.036,0,0,1,506.284,3448.95Zm19.121,0a3.034,3.034,0,1,1-3.033-3.04A3.036,3.036,0,0,1,525.405,3448.95Zm19.121,0a3.033,3.033,0,1,1-3.033-3.04A3.036,3.036,0,0,1,544.526,3448.95Zm19.121,0a3.033,3.033,0,1,1-3.033-3.04A3.036,3.036,0,0,1,563.647,3448.95Zm19.122,0a3.034,3.034,0,1,1-3.034-3.04A3.037,3.037,0,0,1,582.769,3448.95Zm19.121,0a3.034,3.034,0,1,1-3.034-3.04A3.037,3.037,0,0,1,601.89,3448.95Zm19.121,0a3.034,3.034,0,1,1-3.034-3.04A3.036,3.036,0,0,1,621.011,3448.95Zm-305.939,18.72a3.034,3.034,0,1,1-3.033-3.04A3.044,3.044,0,0,1,315.072,3467.67Zm19.121,0a3.033,3.033,0,1,1-3.033-3.04A3.044,3.044,0,0,1,334.193,3467.67Zm19.122,0a3.034,3.034,0,1,1-3.034-3.04A3.045,3.045,0,0,1,353.315,3467.67Zm19.121,0a3.034,3.034,0,1,1-3.034-3.04A3.045,3.045,0,0,1,372.436,3467.67Zm19.121,0a3.034,3.034,0,1,1-3.033-3.04A3.044,3.044,0,0,1,391.557,3467.67Zm19.121,0a3.034,3.034,0,1,1-3.033-3.04A3.044,3.044,0,0,1,410.678,3467.67Zm19.121,0a3.034,3.034,0,1,1-3.033-3.04A3.044,3.044,0,0,1,429.8,3467.67Zm19.121,0a3.033,3.033,0,1,1-3.033-3.04A3.044,3.044,0,0,1,448.92,3467.67Zm19.122,0a3.034,3.034,0,1,1-3.034-3.04A3.045,3.045,0,0,1,468.042,3467.67Zm19.121,0a3.034,3.034,0,1,1-3.034-3.04A3.045,3.045,0,0,1,487.163,3467.67Zm19.121,0a3.034,3.034,0,1,1-3.034-3.04A3.045,3.045,0,0,1,506.284,3467.67Zm19.121,0a3.034,3.034,0,1,1-3.033-3.04A3.044,3.044,0,0,1,525.405,3467.67Zm19.121,0a3.033,3.033,0,1,1-3.033-3.04A3.044,3.044,0,0,1,544.526,3467.67Zm19.121,0a3.033,3.033,0,1,1-3.033-3.04A3.044,3.044,0,0,1,563.647,3467.67Zm19.122,0a3.034,3.034,0,1,1-3.034-3.04A3.045,3.045,0,0,1,582.769,3467.67Zm19.121,0a3.034,3.034,0,1,1-3.034-3.04A3.045,3.045,0,0,1,601.89,3467.67Zm19.121,0a3.034,3.034,0,1,1-3.034-3.04A3.045,3.045,0,0,1,621.011,3467.67ZM315.072,3486.4a3.034,3.034,0,1,1-3.033-3.04A3.036,3.036,0,0,1,315.072,3486.4Zm19.121,0a3.033,3.033,0,1,1-3.033-3.04A3.035,3.035,0,0,1,334.193,3486.4Zm19.122,0a3.034,3.034,0,1,1-3.034-3.04A3.036,3.036,0,0,1,353.315,3486.4Zm19.121,0a3.034,3.034,0,1,1-3.034-3.04A3.036,3.036,0,0,1,372.436,3486.4Zm19.121,0a3.034,3.034,0,1,1-3.033-3.04A3.036,3.036,0,0,1,391.557,3486.4Zm19.121,0a3.034,3.034,0,1,1-3.033-3.04A3.036,3.036,0,0,1,410.678,3486.4Zm19.121,0a3.034,3.034,0,1,1-3.033-3.04A3.036,3.036,0,0,1,429.8,3486.4Zm19.121,0a3.033,3.033,0,1,1-3.033-3.04A3.036,3.036,0,0,1,448.92,3486.4Zm19.122,0a3.034,3.034,0,1,1-3.034-3.04A3.037,3.037,0,0,1,468.042,3486.4Zm19.121,0a3.034,3.034,0,1,1-3.034-3.04A3.037,3.037,0,0,1,487.163,3486.4Zm19.121,0a3.034,3.034,0,1,1-3.034-3.04A3.036,3.036,0,0,1,506.284,3486.4Zm19.121,0a3.034,3.034,0,1,1-3.033-3.04A3.036,3.036,0,0,1,525.405,3486.4Zm19.121,0a3.033,3.033,0,1,1-3.033-3.04A3.036,3.036,0,0,1,544.526,3486.4Zm19.121,0a3.033,3.033,0,1,1-3.033-3.04A3.036,3.036,0,0,1,563.647,3486.4Zm19.122,0a3.034,3.034,0,1,1-3.034-3.04A3.037,3.037,0,0,1,582.769,3486.4Zm19.121,0a3.034,3.034,0,1,1-3.034-3.04A3.037,3.037,0,0,1,601.89,3486.4Zm19.121,0a3.034,3.034,0,1,1-3.034-3.04A3.036,3.036,0,0,1,621.011,3486.4Zm-305.939,18.73a3.034,3.034,0,1,1-3.033-3.04A3.036,3.036,0,0,1,315.072,3505.13Zm19.121,0a3.033,3.033,0,1,1-3.033-3.04A3.035,3.035,0,0,1,334.193,3505.13Zm19.122,0a3.034,3.034,0,1,1-3.034-3.04A3.036,3.036,0,0,1,353.315,3505.13Zm19.121,0a3.034,3.034,0,1,1-3.034-3.04A3.036,3.036,0,0,1,372.436,3505.13Zm19.121,0a3.034,3.034,0,1,1-3.033-3.04A3.036,3.036,0,0,1,391.557,3505.13Zm19.121,0a3.034,3.034,0,1,1-3.033-3.04A3.036,3.036,0,0,1,410.678,3505.13Zm19.121,0a3.034,3.034,0,1,1-3.033-3.04A3.036,3.036,0,0,1,429.8,3505.13Zm19.121,0a3.033,3.033,0,1,1-3.033-3.04A3.036,3.036,0,0,1,448.92,3505.13Zm19.122,0a3.034,3.034,0,1,1-3.034-3.04A3.037,3.037,0,0,1,468.042,3505.13Zm19.121,0a3.034,3.034,0,1,1-3.034-3.04A3.037,3.037,0,0,1,487.163,3505.13Zm19.121,0a3.034,3.034,0,1,1-3.034-3.04A3.036,3.036,0,0,1,506.284,3505.13Zm19.121,0a3.034,3.034,0,1,1-3.033-3.04A3.036,3.036,0,0,1,525.405,3505.13Zm19.121,0a3.033,3.033,0,1,1-3.033-3.04A3.036,3.036,0,0,1,544.526,3505.13Zm19.121,0a3.033,3.033,0,1,1-3.033-3.04A3.036,3.036,0,0,1,563.647,3505.13Zm19.122,0a3.034,3.034,0,1,1-3.034-3.04A3.037,3.037,0,0,1,582.769,3505.13Zm19.121,0a3.034,3.034,0,1,1-3.034-3.04A3.037,3.037,0,0,1,601.89,3505.13Zm19.121,0a3.034,3.034,0,1,1-3.034-3.04A3.036,3.036,0,0,1,621.011,3505.13Zm-305.939,18.73a3.034,3.034,0,1,1-3.033-3.05A3.036,3.036,0,0,1,315.072,3523.86Zm19.121,0a3.033,3.033,0,1,1-3.033-3.05A3.035,3.035,0,0,1,334.193,3523.86Zm19.122,0a3.034,3.034,0,1,1-3.034-3.05A3.036,3.036,0,0,1,353.315,3523.86Zm19.121,0a3.034,3.034,0,1,1-3.034-3.05A3.036,3.036,0,0,1,372.436,3523.86Zm19.121,0a3.034,3.034,0,1,1-3.033-3.05A3.036,3.036,0,0,1,391.557,3523.86Zm19.121,0a3.034,3.034,0,1,1-3.033-3.05A3.036,3.036,0,0,1,410.678,3523.86Zm19.121,0a3.034,3.034,0,1,1-3.033-3.05A3.036,3.036,0,0,1,429.8,3523.86Zm19.121,0a3.033,3.033,0,1,1-3.033-3.05A3.036,3.036,0,0,1,448.92,3523.86Zm19.122,0a3.034,3.034,0,1,1-3.034-3.05A3.037,3.037,0,0,1,468.042,3523.86Zm19.121,0a3.034,3.034,0,1,1-3.034-3.05A3.037,3.037,0,0,1,487.163,3523.86Zm19.121,0a3.034,3.034,0,1,1-3.034-3.05A3.036,3.036,0,0,1,506.284,3523.86Zm19.121,0a3.034,3.034,0,1,1-3.033-3.05A3.036,3.036,0,0,1,525.405,3523.86Zm19.121,0a3.033,3.033,0,1,1-3.033-3.05A3.036,3.036,0,0,1,544.526,3523.86Zm19.121,0a3.033,3.033,0,1,1-3.033-3.05A3.036,3.036,0,0,1,563.647,3523.86Zm19.122,0a3.034,3.034,0,1,1-3.034-3.05A3.037,3.037,0,0,1,582.769,3523.86Zm19.121,0a3.034,3.034,0,1,1-3.034-3.05A3.037,3.037,0,0,1,601.89,3523.86Zm19.121,0a3.034,3.034,0,1,1-3.034-3.05A3.036,3.036,0,0,1,621.011,3523.86Zm-305.939,18.72a3.034,3.034,0,1,1-3.033-3.04A3.036,3.036,0,0,1,315.072,3542.58Zm19.121,0a3.033,3.033,0,1,1-3.033-3.04A3.035,3.035,0,0,1,334.193,3542.58Zm19.122,0a3.034,3.034,0,1,1-3.034-3.04A3.036,3.036,0,0,1,353.315,3542.58Zm19.121,0a3.034,3.034,0,1,1-3.034-3.04A3.036,3.036,0,0,1,372.436,3542.58Zm19.121,0a3.034,3.034,0,1,1-3.033-3.04A3.036,3.036,0,0,1,391.557,3542.58Zm19.121,0a3.034,3.034,0,1,1-3.033-3.04A3.036,3.036,0,0,1,410.678,3542.58Zm19.121,0a3.034,3.034,0,1,1-3.033-3.04A3.036,3.036,0,0,1,429.8,3542.58Zm19.121,0a3.033,3.033,0,1,1-3.033-3.04A3.036,3.036,0,0,1,448.92,3542.58Zm19.122,0a3.034,3.034,0,1,1-3.034-3.04A3.037,3.037,0,0,1,468.042,3542.58Zm19.121,0a3.034,3.034,0,1,1-3.034-3.04A3.037,3.037,0,0,1,487.163,3542.58Zm19.121,0a3.034,3.034,0,1,1-3.034-3.04A3.036,3.036,0,0,1,506.284,3542.58Zm19.121,0a3.034,3.034,0,1,1-3.033-3.04A3.036,3.036,0,0,1,525.405,3542.58Zm19.121,0a3.033,3.033,0,1,1-3.033-3.04A3.036,3.036,0,0,1,544.526,3542.58Zm19.121,0a3.033,3.033,0,1,1-3.033-3.04A3.036,3.036,0,0,1,563.647,3542.58Zm19.122,0a3.034,3.034,0,1,1-3.034-3.04A3.037,3.037,0,0,1,582.769,3542.58Zm19.121,0a3.034,3.034,0,1,1-3.034-3.04A3.037,3.037,0,0,1,601.89,3542.58Zm19.121,0a3.034,3.034,0,1,1-3.034-3.04A3.036,3.036,0,0,1,621.011,3542.58Zm-305.939,18.73a3.034,3.034,0,1,1-3.033-3.04A3.036,3.036,0,0,1,315.072,3561.31Zm19.121,0a3.033,3.033,0,1,1-3.033-3.04A3.035,3.035,0,0,1,334.193,3561.31Zm19.122,0a3.034,3.034,0,1,1-3.034-3.04A3.036,3.036,0,0,1,353.315,3561.31Zm19.121,0a3.034,3.034,0,1,1-3.034-3.04A3.036,3.036,0,0,1,372.436,3561.31Zm19.121,0a3.034,3.034,0,1,1-3.033-3.04A3.036,3.036,0,0,1,391.557,3561.31Zm19.121,0a3.034,3.034,0,1,1-3.033-3.04A3.036,3.036,0,0,1,410.678,3561.31Zm19.121,0a3.034,3.034,0,1,1-3.033-3.04A3.036,3.036,0,0,1,429.8,3561.31Zm19.121,0a3.033,3.033,0,1,1-3.033-3.04A3.036,3.036,0,0,1,448.92,3561.31Zm19.122,0a3.034,3.034,0,1,1-3.034-3.04A3.037,3.037,0,0,1,468.042,3561.31Zm19.121,0a3.034,3.034,0,1,1-3.034-3.04A3.037,3.037,0,0,1,487.163,3561.31Zm19.121,0a3.034,3.034,0,1,1-3.034-3.04A3.036,3.036,0,0,1,506.284,3561.31Zm19.121,0a3.034,3.034,0,1,1-3.033-3.04A3.036,3.036,0,0,1,525.405,3561.31Zm19.121,0a3.033,3.033,0,1,1-3.033-3.04A3.036,3.036,0,0,1,544.526,3561.31Zm19.121,0a3.033,3.033,0,1,1-3.033-3.04A3.036,3.036,0,0,1,563.647,3561.31Zm19.122,0a3.034,3.034,0,1,1-3.034-3.04A3.037,3.037,0,0,1,582.769,3561.31Zm19.121,0a3.034,3.034,0,1,1-3.034-3.04A3.037,3.037,0,0,1,601.89,3561.31Zm19.121,0a3.034,3.034,0,1,1-3.034-3.04A3.036,3.036,0,0,1,621.011,3561.31Zm-305.939,18.73a3.034,3.034,0,1,1-3.033-3.04A3.036,3.036,0,0,1,315.072,3580.04Zm19.121,0a3.033,3.033,0,1,1-3.033-3.04A3.035,3.035,0,0,1,334.193,3580.04Zm19.122,0a3.034,3.034,0,1,1-3.034-3.04A3.036,3.036,0,0,1,353.315,3580.04Zm19.121,0A3.034,3.034,0,1,1,369.4,3577,3.036,3.036,0,0,1,372.436,3580.04Zm19.121,0a3.034,3.034,0,1,1-3.033-3.04A3.036,3.036,0,0,1,391.557,3580.04Zm19.121,0a3.034,3.034,0,1,1-3.033-3.04A3.036,3.036,0,0,1,410.678,3580.04Zm19.121,0a3.034,3.034,0,1,1-3.033-3.04A3.036,3.036,0,0,1,429.8,3580.04Zm19.121,0a3.033,3.033,0,1,1-3.033-3.04A3.036,3.036,0,0,1,448.92,3580.04Zm19.122,0a3.034,3.034,0,1,1-3.034-3.04A3.037,3.037,0,0,1,468.042,3580.04Zm19.121,0a3.034,3.034,0,1,1-3.034-3.04A3.037,3.037,0,0,1,487.163,3580.04Zm19.121,0a3.034,3.034,0,1,1-3.034-3.04A3.036,3.036,0,0,1,506.284,3580.04Zm19.121,0a3.034,3.034,0,1,1-3.033-3.04A3.036,3.036,0,0,1,525.405,3580.04Zm19.121,0a3.033,3.033,0,1,1-3.033-3.04A3.036,3.036,0,0,1,544.526,3580.04Zm19.121,0a3.033,3.033,0,1,1-3.033-3.04A3.036,3.036,0,0,1,563.647,3580.04Zm19.122,0a3.034,3.034,0,1,1-3.034-3.04A3.037,3.037,0,0,1,582.769,3580.04Zm19.121,0a3.034,3.034,0,1,1-3.034-3.04A3.037,3.037,0,0,1,601.89,3580.04Zm19.121,0a3.034,3.034,0,1,1-3.034-3.04A3.036,3.036,0,0,1,621.011,3580.04Zm-305.939,18.72a3.034,3.034,0,1,1-3.033-3.04A3.038,3.038,0,0,1,315.072,3598.76Zm19.121,0a3.033,3.033,0,1,1-3.033-3.04A3.037,3.037,0,0,1,334.193,3598.76Zm19.122,0a3.034,3.034,0,1,1-3.034-3.04A3.038,3.038,0,0,1,353.315,3598.76Zm19.121,0a3.034,3.034,0,1,1-3.034-3.04A3.038,3.038,0,0,1,372.436,3598.76Zm19.121,0a3.034,3.034,0,1,1-3.033-3.04A3.038,3.038,0,0,1,391.557,3598.76Zm19.121,0a3.034,3.034,0,1,1-3.033-3.04A3.038,3.038,0,0,1,410.678,3598.76Zm19.121,0a3.034,3.034,0,1,1-3.033-3.04A3.038,3.038,0,0,1,429.8,3598.76Zm19.121,0a3.033,3.033,0,1,1-3.033-3.04A3.038,3.038,0,0,1,448.92,3598.76Zm19.122,0a3.034,3.034,0,1,1-3.034-3.04A3.039,3.039,0,0,1,468.042,3598.76Zm19.121,0a3.034,3.034,0,1,1-3.034-3.04A3.039,3.039,0,0,1,487.163,3598.76Zm19.121,0a3.034,3.034,0,1,1-3.034-3.04A3.038,3.038,0,0,1,506.284,3598.76Zm19.121,0a3.034,3.034,0,1,1-3.033-3.04A3.038,3.038,0,0,1,525.405,3598.76Zm19.121,0a3.033,3.033,0,1,1-3.033-3.04A3.038,3.038,0,0,1,544.526,3598.76Zm19.121,0a3.033,3.033,0,1,1-3.033-3.04A3.038,3.038,0,0,1,563.647,3598.76Zm19.122,0a3.034,3.034,0,1,1-3.034-3.04A3.039,3.039,0,0,1,582.769,3598.76Zm19.121,0a3.034,3.034,0,1,1-3.034-3.04A3.039,3.039,0,0,1,601.89,3598.76Zm19.121,0a3.034,3.034,0,1,1-3.034-3.04A3.038,3.038,0,0,1,621.011,3598.76Zm-305.939,18.73a3.034,3.034,0,1,1-3.033-3.04A3.036,3.036,0,0,1,315.072,3617.49Zm19.121,0a3.033,3.033,0,1,1-3.033-3.04A3.035,3.035,0,0,1,334.193,3617.49Zm19.122,0a3.034,3.034,0,1,1-3.034-3.04A3.036,3.036,0,0,1,353.315,3617.49Zm19.121,0a3.034,3.034,0,1,1-3.034-3.04A3.036,3.036,0,0,1,372.436,3617.49Zm19.121,0a3.034,3.034,0,1,1-3.033-3.04A3.036,3.036,0,0,1,391.557,3617.49Zm19.121,0a3.034,3.034,0,1,1-3.033-3.04A3.036,3.036,0,0,1,410.678,3617.49Zm19.121,0a3.034,3.034,0,1,1-3.033-3.04A3.036,3.036,0,0,1,429.8,3617.49Zm19.121,0a3.033,3.033,0,1,1-3.033-3.04A3.036,3.036,0,0,1,448.92,3617.49Zm19.122,0a3.034,3.034,0,1,1-3.034-3.04A3.037,3.037,0,0,1,468.042,3617.49Zm19.121,0a3.034,3.034,0,1,1-3.034-3.04A3.037,3.037,0,0,1,487.163,3617.49Zm19.121,0a3.034,3.034,0,1,1-3.034-3.04A3.036,3.036,0,0,1,506.284,3617.49Zm19.121,0a3.034,3.034,0,1,1-3.033-3.04A3.036,3.036,0,0,1,525.405,3617.49Zm19.121,0a3.033,3.033,0,1,1-3.033-3.04A3.036,3.036,0,0,1,544.526,3617.49Zm19.121,0a3.033,3.033,0,1,1-3.033-3.04A3.036,3.036,0,0,1,563.647,3617.49Zm19.122,0a3.034,3.034,0,1,1-3.034-3.04A3.037,3.037,0,0,1,582.769,3617.49Zm19.121,0a3.034,3.034,0,1,1-3.034-3.04A3.037,3.037,0,0,1,601.89,3617.49Zm19.121,0a3.034,3.034,0,1,1-3.034-3.04A3.036,3.036,0,0,1,621.011,3617.49Zm-305.939,18.73a3.034,3.034,0,1,1-3.033-3.04A3.036,3.036,0,0,1,315.072,3636.22Zm19.121,0a3.033,3.033,0,1,1-3.033-3.04A3.035,3.035,0,0,1,334.193,3636.22Zm19.122,0a3.034,3.034,0,1,1-3.034-3.04A3.036,3.036,0,0,1,353.315,3636.22Zm19.121,0a3.034,3.034,0,1,1-3.034-3.04A3.036,3.036,0,0,1,372.436,3636.22Zm19.121,0a3.034,3.034,0,1,1-3.033-3.04A3.036,3.036,0,0,1,391.557,3636.22Zm19.121,0a3.034,3.034,0,1,1-3.033-3.04A3.036,3.036,0,0,1,410.678,3636.22Zm19.121,0a3.034,3.034,0,1,1-3.033-3.04A3.036,3.036,0,0,1,429.8,3636.22Zm19.121,0a3.033,3.033,0,1,1-3.033-3.04A3.036,3.036,0,0,1,448.92,3636.22Zm19.122,0a3.034,3.034,0,1,1-3.034-3.04A3.037,3.037,0,0,1,468.042,3636.22Zm19.121,0a3.034,3.034,0,1,1-3.034-3.04A3.037,3.037,0,0,1,487.163,3636.22Zm19.121,0a3.034,3.034,0,1,1-3.034-3.04A3.036,3.036,0,0,1,506.284,3636.22Zm19.121,0a3.034,3.034,0,1,1-3.033-3.04A3.036,3.036,0,0,1,525.405,3636.22Zm19.121,0a3.033,3.033,0,1,1-3.033-3.04A3.036,3.036,0,0,1,544.526,3636.22Zm19.121,0a3.033,3.033,0,1,1-3.033-3.04A3.036,3.036,0,0,1,563.647,3636.22Zm19.122,0a3.034,3.034,0,1,1-3.034-3.04A3.037,3.037,0,0,1,582.769,3636.22Zm19.121,0a3.034,3.034,0,1,1-3.034-3.04A3.037,3.037,0,0,1,601.89,3636.22Zm19.121,0a3.034,3.034,0,1,1-3.034-3.04A3.036,3.036,0,0,1,621.011,3636.22Zm-305.939,18.73a3.034,3.034,0,1,1-3.033-3.04A3.036,3.036,0,0,1,315.072,3654.95Zm19.121,0a3.033,3.033,0,1,1-3.033-3.04A3.035,3.035,0,0,1,334.193,3654.95Zm19.122,0a3.034,3.034,0,1,1-3.034-3.04A3.036,3.036,0,0,1,353.315,3654.95Zm19.121,0a3.034,3.034,0,1,1-3.034-3.04A3.036,3.036,0,0,1,372.436,3654.95Zm19.121,0a3.034,3.034,0,1,1-3.033-3.04A3.036,3.036,0,0,1,391.557,3654.95Zm19.121,0a3.034,3.034,0,1,1-3.033-3.04A3.036,3.036,0,0,1,410.678,3654.95Zm19.121,0a3.034,3.034,0,1,1-3.033-3.04A3.036,3.036,0,0,1,429.8,3654.95Zm19.121,0a3.033,3.033,0,1,1-3.033-3.04A3.036,3.036,0,0,1,448.92,3654.95Zm19.122,0a3.034,3.034,0,1,1-3.034-3.04A3.037,3.037,0,0,1,468.042,3654.95Zm19.121,0a3.034,3.034,0,1,1-3.034-3.04A3.037,3.037,0,0,1,487.163,3654.95Zm19.121,0a3.034,3.034,0,1,1-3.034-3.04A3.036,3.036,0,0,1,506.284,3654.95Zm19.121,0a3.034,3.034,0,1,1-3.033-3.04A3.036,3.036,0,0,1,525.405,3654.95Zm19.121,0a3.033,3.033,0,1,1-3.033-3.04A3.036,3.036,0,0,1,544.526,3654.95Zm19.121,0a3.033,3.033,0,1,1-3.033-3.04A3.036,3.036,0,0,1,563.647,3654.95Zm19.122,0a3.034,3.034,0,1,1-3.034-3.04A3.037,3.037,0,0,1,582.769,3654.95Zm19.121,0a3.034,3.034,0,1,1-3.034-3.04A3.037,3.037,0,0,1,601.89,3654.95Zm19.121,0a3.034,3.034,0,1,1-3.034-3.04A3.036,3.036,0,0,1,621.011,3654.95Z" transform="translate(-309 -3371)"/>
</svg>
