<svg xmlns="http://www.w3.org/2000/svg" width="312" height="287" viewBox="0 0 312 287">
  <defs>
    <style>
      .cls-1 {
        fill: #fff;
        fill-rule: evenodd;
        opacity: 0.1;
      }
    </style>
  </defs>
  <path id="decor_pattern_light.svg" class="cls-1" d="M211.072,287.038A3.033,3.033,0,1,1,208.039,284,3.038,3.038,0,0,1,211.072,287.038Zm19.121,0A3.033,3.033,0,1,1,227.16,284,3.038,3.038,0,0,1,230.193,287.038Zm19.122,0A3.034,3.034,0,1,1,246.281,284,3.038,3.038,0,0,1,249.315,287.038Zm19.121,0A3.034,3.034,0,1,1,265.4,284,3.038,3.038,0,0,1,268.436,287.038Zm19.121,0A3.034,3.034,0,1,1,284.524,284,3.038,3.038,0,0,1,287.557,287.038Zm19.121,0A3.034,3.034,0,1,1,303.645,284,3.038,3.038,0,0,1,306.678,287.038Zm19.121,0A3.033,3.033,0,1,1,322.766,284,3.038,3.038,0,0,1,325.8,287.038Zm19.121,0A3.033,3.033,0,1,1,341.887,284,3.038,3.038,0,0,1,344.92,287.038Zm19.122,0A3.034,3.034,0,1,1,361.008,284,3.038,3.038,0,0,1,364.042,287.038Zm19.121,0A3.034,3.034,0,1,1,380.129,284,3.038,3.038,0,0,1,383.163,287.038Zm19.121,0A3.034,3.034,0,1,1,399.25,284,3.038,3.038,0,0,1,402.284,287.038Zm19.121,0A3.034,3.034,0,1,1,418.372,284,3.038,3.038,0,0,1,421.405,287.038Zm19.121,0A3.033,3.033,0,1,1,437.493,284,3.038,3.038,0,0,1,440.526,287.038Zm19.121,0A3.033,3.033,0,1,1,456.614,284,3.038,3.038,0,0,1,459.647,287.038Zm19.122,0A3.034,3.034,0,1,1,475.735,284,3.038,3.038,0,0,1,478.769,287.038Zm19.121,0A3.034,3.034,0,1,1,494.856,284,3.038,3.038,0,0,1,497.89,287.038Zm19.121,0A3.034,3.034,0,1,1,513.977,284,3.038,3.038,0,0,1,517.011,287.038ZM211.072,305.765a3.033,3.033,0,1,1-3.033-3.041A3.038,3.038,0,0,1,211.072,305.765Zm19.121,0a3.033,3.033,0,1,1-3.033-3.041A3.038,3.038,0,0,1,230.193,305.765Zm19.122,0a3.034,3.034,0,1,1-3.034-3.041A3.038,3.038,0,0,1,249.315,305.765Zm19.121,0a3.034,3.034,0,1,1-3.034-3.041A3.038,3.038,0,0,1,268.436,305.765Zm19.121,0a3.034,3.034,0,1,1-3.033-3.041A3.038,3.038,0,0,1,287.557,305.765Zm19.121,0a3.034,3.034,0,1,1-3.033-3.041A3.038,3.038,0,0,1,306.678,305.765Zm19.121,0a3.033,3.033,0,1,1-3.033-3.041A3.038,3.038,0,0,1,325.8,305.765Zm19.121,0a3.033,3.033,0,1,1-3.033-3.041A3.038,3.038,0,0,1,344.92,305.765Zm19.122,0a3.034,3.034,0,1,1-3.034-3.041A3.038,3.038,0,0,1,364.042,305.765Zm19.121,0a3.034,3.034,0,1,1-3.034-3.041A3.038,3.038,0,0,1,383.163,305.765Zm19.121,0a3.034,3.034,0,1,1-3.034-3.041A3.038,3.038,0,0,1,402.284,305.765Zm19.121,0a3.034,3.034,0,1,1-3.033-3.041A3.038,3.038,0,0,1,421.405,305.765Zm19.121,0a3.033,3.033,0,1,1-3.033-3.041A3.038,3.038,0,0,1,440.526,305.765Zm19.121,0a3.033,3.033,0,1,1-3.033-3.041A3.038,3.038,0,0,1,459.647,305.765Zm19.122,0a3.034,3.034,0,1,1-3.034-3.041A3.038,3.038,0,0,1,478.769,305.765Zm19.121,0a3.034,3.034,0,1,1-3.034-3.041A3.038,3.038,0,0,1,497.89,305.765Zm19.121,0a3.034,3.034,0,1,1-3.034-3.041A3.038,3.038,0,0,1,517.011,305.765ZM211.072,324.492a3.033,3.033,0,1,1-3.033-3.041A3.038,3.038,0,0,1,211.072,324.492Zm19.121,0a3.033,3.033,0,1,1-3.033-3.041A3.038,3.038,0,0,1,230.193,324.492Zm19.122,0a3.034,3.034,0,1,1-3.034-3.041A3.038,3.038,0,0,1,249.315,324.492Zm19.121,0a3.034,3.034,0,1,1-3.034-3.041A3.038,3.038,0,0,1,268.436,324.492Zm19.121,0a3.034,3.034,0,1,1-3.033-3.041A3.038,3.038,0,0,1,287.557,324.492Zm19.121,0a3.034,3.034,0,1,1-3.033-3.041A3.038,3.038,0,0,1,306.678,324.492Zm19.121,0a3.033,3.033,0,1,1-3.033-3.041A3.038,3.038,0,0,1,325.8,324.492Zm19.121,0a3.033,3.033,0,1,1-3.033-3.041A3.038,3.038,0,0,1,344.92,324.492Zm19.122,0a3.034,3.034,0,1,1-3.034-3.041A3.038,3.038,0,0,1,364.042,324.492Zm19.121,0a3.034,3.034,0,1,1-3.034-3.041A3.038,3.038,0,0,1,383.163,324.492Zm19.121,0a3.034,3.034,0,1,1-3.034-3.041A3.038,3.038,0,0,1,402.284,324.492Zm19.121,0a3.034,3.034,0,1,1-3.033-3.041A3.038,3.038,0,0,1,421.405,324.492Zm19.121,0a3.033,3.033,0,1,1-3.033-3.041A3.038,3.038,0,0,1,440.526,324.492Zm19.121,0a3.033,3.033,0,1,1-3.033-3.041A3.038,3.038,0,0,1,459.647,324.492Zm19.122,0a3.034,3.034,0,1,1-3.034-3.041A3.038,3.038,0,0,1,478.769,324.492Zm19.121,0a3.034,3.034,0,1,1-3.034-3.041A3.038,3.038,0,0,1,497.89,324.492Zm19.121,0a3.034,3.034,0,1,1-3.034-3.041A3.038,3.038,0,0,1,517.011,324.492ZM211.072,343.22a3.033,3.033,0,1,1-3.033-3.042A3.037,3.037,0,0,1,211.072,343.22Zm19.121,0a3.033,3.033,0,1,1-3.033-3.042A3.037,3.037,0,0,1,230.193,343.22Zm19.122,0a3.034,3.034,0,1,1-3.034-3.042A3.038,3.038,0,0,1,249.315,343.22Zm19.121,0a3.034,3.034,0,1,1-3.034-3.042A3.038,3.038,0,0,1,268.436,343.22Zm19.121,0a3.034,3.034,0,1,1-3.033-3.042A3.037,3.037,0,0,1,287.557,343.22Zm19.121,0a3.034,3.034,0,1,1-3.033-3.042A3.037,3.037,0,0,1,306.678,343.22Zm19.121,0a3.033,3.033,0,1,1-3.033-3.042A3.037,3.037,0,0,1,325.8,343.22Zm19.121,0a3.033,3.033,0,1,1-3.033-3.042A3.037,3.037,0,0,1,344.92,343.22Zm19.122,0a3.034,3.034,0,1,1-3.034-3.042A3.038,3.038,0,0,1,364.042,343.22Zm19.121,0a3.034,3.034,0,1,1-3.034-3.042A3.038,3.038,0,0,1,383.163,343.22Zm19.121,0a3.034,3.034,0,1,1-3.034-3.042A3.038,3.038,0,0,1,402.284,343.22Zm19.121,0a3.034,3.034,0,1,1-3.033-3.042A3.037,3.037,0,0,1,421.405,343.22Zm19.121,0a3.033,3.033,0,1,1-3.033-3.042A3.037,3.037,0,0,1,440.526,343.22Zm19.121,0a3.033,3.033,0,1,1-3.033-3.042A3.037,3.037,0,0,1,459.647,343.22Zm19.122,0a3.034,3.034,0,1,1-3.034-3.042A3.038,3.038,0,0,1,478.769,343.22Zm19.121,0a3.034,3.034,0,1,1-3.034-3.042A3.038,3.038,0,0,1,497.89,343.22Zm19.121,0a3.034,3.034,0,1,1-3.034-3.042A3.038,3.038,0,0,1,517.011,343.22ZM211.072,361.947a3.033,3.033,0,1,1-3.033-3.041A3.037,3.037,0,0,1,211.072,361.947Zm19.121,0a3.033,3.033,0,1,1-3.033-3.041A3.037,3.037,0,0,1,230.193,361.947Zm19.122,0a3.034,3.034,0,1,1-3.034-3.041A3.037,3.037,0,0,1,249.315,361.947Zm19.121,0a3.034,3.034,0,1,1-3.034-3.041A3.037,3.037,0,0,1,268.436,361.947Zm19.121,0a3.034,3.034,0,1,1-3.033-3.041A3.037,3.037,0,0,1,287.557,361.947Zm19.121,0a3.034,3.034,0,1,1-3.033-3.041A3.037,3.037,0,0,1,306.678,361.947Zm19.121,0a3.033,3.033,0,1,1-3.033-3.041A3.037,3.037,0,0,1,325.8,361.947Zm19.121,0a3.033,3.033,0,1,1-3.033-3.041A3.037,3.037,0,0,1,344.92,361.947Zm19.122,0a3.034,3.034,0,1,1-3.034-3.041A3.038,3.038,0,0,1,364.042,361.947Zm19.121,0a3.034,3.034,0,1,1-3.034-3.041A3.037,3.037,0,0,1,383.163,361.947Zm19.121,0a3.034,3.034,0,1,1-3.034-3.041A3.037,3.037,0,0,1,402.284,361.947Zm19.121,0a3.034,3.034,0,1,1-3.033-3.041A3.037,3.037,0,0,1,421.405,361.947Zm19.121,0a3.033,3.033,0,1,1-3.033-3.041A3.037,3.037,0,0,1,440.526,361.947Zm19.121,0a3.033,3.033,0,1,1-3.033-3.041A3.037,3.037,0,0,1,459.647,361.947Zm19.122,0a3.034,3.034,0,1,1-3.034-3.041A3.038,3.038,0,0,1,478.769,361.947Zm19.121,0a3.034,3.034,0,1,1-3.034-3.041A3.037,3.037,0,0,1,497.89,361.947Zm19.121,0a3.034,3.034,0,1,1-3.034-3.041A3.037,3.037,0,0,1,517.011,361.947ZM211.072,380.674a3.033,3.033,0,1,1-3.033-3.041A3.038,3.038,0,0,1,211.072,380.674Zm19.121,0a3.033,3.033,0,1,1-3.033-3.041A3.038,3.038,0,0,1,230.193,380.674Zm19.122,0a3.034,3.034,0,1,1-3.034-3.041A3.038,3.038,0,0,1,249.315,380.674Zm19.121,0a3.034,3.034,0,1,1-3.034-3.041A3.038,3.038,0,0,1,268.436,380.674Zm19.121,0a3.034,3.034,0,1,1-3.033-3.041A3.038,3.038,0,0,1,287.557,380.674Zm19.121,0a3.034,3.034,0,1,1-3.033-3.041A3.038,3.038,0,0,1,306.678,380.674Zm19.121,0a3.033,3.033,0,1,1-3.033-3.041A3.038,3.038,0,0,1,325.8,380.674Zm19.121,0a3.033,3.033,0,1,1-3.033-3.041A3.038,3.038,0,0,1,344.92,380.674Zm19.122,0a3.034,3.034,0,1,1-3.034-3.041A3.038,3.038,0,0,1,364.042,380.674Zm19.121,0a3.034,3.034,0,1,1-3.034-3.041A3.038,3.038,0,0,1,383.163,380.674Zm19.121,0a3.034,3.034,0,1,1-3.034-3.041A3.038,3.038,0,0,1,402.284,380.674Zm19.121,0a3.034,3.034,0,1,1-3.033-3.041A3.038,3.038,0,0,1,421.405,380.674Zm19.121,0a3.033,3.033,0,1,1-3.033-3.041A3.038,3.038,0,0,1,440.526,380.674Zm19.121,0a3.033,3.033,0,1,1-3.033-3.041A3.038,3.038,0,0,1,459.647,380.674Zm19.122,0a3.034,3.034,0,1,1-3.034-3.041A3.038,3.038,0,0,1,478.769,380.674Zm19.121,0a3.034,3.034,0,1,1-3.034-3.041A3.038,3.038,0,0,1,497.89,380.674Zm19.121,0a3.034,3.034,0,1,1-3.034-3.041A3.038,3.038,0,0,1,517.011,380.674ZM211.072,399.4a3.033,3.033,0,1,1-3.033-3.04A3.038,3.038,0,0,1,211.072,399.4Zm19.121,0a3.033,3.033,0,1,1-3.033-3.04A3.038,3.038,0,0,1,230.193,399.4Zm19.122,0a3.034,3.034,0,1,1-3.034-3.04A3.038,3.038,0,0,1,249.315,399.4Zm19.121,0a3.034,3.034,0,1,1-3.034-3.04A3.038,3.038,0,0,1,268.436,399.4Zm19.121,0a3.034,3.034,0,1,1-3.033-3.04A3.038,3.038,0,0,1,287.557,399.4Zm19.121,0a3.034,3.034,0,1,1-3.033-3.04A3.038,3.038,0,0,1,306.678,399.4Zm19.121,0a3.033,3.033,0,1,1-3.033-3.04A3.038,3.038,0,0,1,325.8,399.4Zm19.121,0a3.033,3.033,0,1,1-3.033-3.04A3.038,3.038,0,0,1,344.92,399.4Zm19.122,0a3.034,3.034,0,1,1-3.034-3.04A3.038,3.038,0,0,1,364.042,399.4Zm19.121,0a3.034,3.034,0,1,1-3.034-3.04A3.038,3.038,0,0,1,383.163,399.4Zm19.121,0a3.034,3.034,0,1,1-3.034-3.04A3.038,3.038,0,0,1,402.284,399.4Zm19.121,0a3.034,3.034,0,1,1-3.033-3.04A3.038,3.038,0,0,1,421.405,399.4Zm19.121,0a3.033,3.033,0,1,1-3.033-3.04A3.038,3.038,0,0,1,440.526,399.4Zm19.121,0a3.033,3.033,0,1,1-3.033-3.04A3.038,3.038,0,0,1,459.647,399.4Zm19.122,0a3.034,3.034,0,1,1-3.034-3.04A3.038,3.038,0,0,1,478.769,399.4Zm19.121,0a3.034,3.034,0,1,1-3.034-3.04A3.038,3.038,0,0,1,497.89,399.4Zm19.121,0a3.034,3.034,0,1,1-3.034-3.04A3.038,3.038,0,0,1,517.011,399.4ZM211.072,418.129a3.033,3.033,0,1,1-3.033-3.041A3.037,3.037,0,0,1,211.072,418.129Zm19.121,0a3.033,3.033,0,1,1-3.033-3.041A3.037,3.037,0,0,1,230.193,418.129Zm19.122,0a3.034,3.034,0,1,1-3.034-3.041A3.037,3.037,0,0,1,249.315,418.129Zm19.121,0a3.034,3.034,0,1,1-3.034-3.041A3.037,3.037,0,0,1,268.436,418.129Zm19.121,0a3.034,3.034,0,1,1-3.033-3.041A3.037,3.037,0,0,1,287.557,418.129Zm19.121,0a3.034,3.034,0,1,1-3.033-3.041A3.037,3.037,0,0,1,306.678,418.129Zm19.121,0a3.033,3.033,0,1,1-3.033-3.041A3.037,3.037,0,0,1,325.8,418.129Zm19.121,0a3.033,3.033,0,1,1-3.033-3.041A3.037,3.037,0,0,1,344.92,418.129Zm19.122,0a3.034,3.034,0,1,1-3.034-3.041A3.038,3.038,0,0,1,364.042,418.129Zm19.121,0a3.034,3.034,0,1,1-3.034-3.041A3.037,3.037,0,0,1,383.163,418.129Zm19.121,0a3.034,3.034,0,1,1-3.034-3.041A3.037,3.037,0,0,1,402.284,418.129Zm19.121,0a3.034,3.034,0,1,1-3.033-3.041A3.037,3.037,0,0,1,421.405,418.129Zm19.121,0a3.033,3.033,0,1,1-3.033-3.041A3.037,3.037,0,0,1,440.526,418.129Zm19.121,0a3.033,3.033,0,1,1-3.033-3.041A3.037,3.037,0,0,1,459.647,418.129Zm19.122,0a3.034,3.034,0,1,1-3.034-3.041A3.038,3.038,0,0,1,478.769,418.129Zm19.121,0a3.034,3.034,0,1,1-3.034-3.041A3.037,3.037,0,0,1,497.89,418.129Zm19.121,0a3.034,3.034,0,1,1-3.034-3.041A3.037,3.037,0,0,1,517.011,418.129ZM211.072,436.856a3.033,3.033,0,1,1-3.033-3.041A3.037,3.037,0,0,1,211.072,436.856Zm19.121,0a3.033,3.033,0,1,1-3.033-3.041A3.037,3.037,0,0,1,230.193,436.856Zm19.122,0a3.034,3.034,0,1,1-3.034-3.041A3.037,3.037,0,0,1,249.315,436.856Zm19.121,0a3.034,3.034,0,1,1-3.034-3.041A3.037,3.037,0,0,1,268.436,436.856Zm19.121,0a3.034,3.034,0,1,1-3.033-3.041A3.037,3.037,0,0,1,287.557,436.856Zm19.121,0a3.034,3.034,0,1,1-3.033-3.041A3.037,3.037,0,0,1,306.678,436.856Zm19.121,0a3.033,3.033,0,1,1-3.033-3.041A3.037,3.037,0,0,1,325.8,436.856Zm19.121,0a3.033,3.033,0,1,1-3.033-3.041A3.037,3.037,0,0,1,344.92,436.856Zm19.122,0a3.034,3.034,0,1,1-3.034-3.041A3.038,3.038,0,0,1,364.042,436.856Zm19.121,0a3.034,3.034,0,1,1-3.034-3.041A3.037,3.037,0,0,1,383.163,436.856Zm19.121,0a3.034,3.034,0,1,1-3.034-3.041A3.037,3.037,0,0,1,402.284,436.856Zm19.121,0a3.034,3.034,0,1,1-3.033-3.041A3.037,3.037,0,0,1,421.405,436.856Zm19.121,0a3.033,3.033,0,1,1-3.033-3.041A3.037,3.037,0,0,1,440.526,436.856Zm19.121,0a3.033,3.033,0,1,1-3.033-3.041A3.037,3.037,0,0,1,459.647,436.856Zm19.122,0a3.034,3.034,0,1,1-3.034-3.041A3.038,3.038,0,0,1,478.769,436.856Zm19.121,0a3.034,3.034,0,1,1-3.034-3.041A3.037,3.037,0,0,1,497.89,436.856Zm19.121,0a3.034,3.034,0,1,1-3.034-3.041A3.037,3.037,0,0,1,517.011,436.856ZM211.072,455.584a3.033,3.033,0,1,1-3.033-3.042A3.037,3.037,0,0,1,211.072,455.584Zm19.121,0a3.033,3.033,0,1,1-3.033-3.042A3.037,3.037,0,0,1,230.193,455.584Zm19.122,0a3.034,3.034,0,1,1-3.034-3.042A3.038,3.038,0,0,1,249.315,455.584Zm19.121,0a3.034,3.034,0,1,1-3.034-3.042A3.038,3.038,0,0,1,268.436,455.584Zm19.121,0a3.034,3.034,0,1,1-3.033-3.042A3.037,3.037,0,0,1,287.557,455.584Zm19.121,0a3.034,3.034,0,1,1-3.033-3.042A3.037,3.037,0,0,1,306.678,455.584Zm19.121,0a3.033,3.033,0,1,1-3.033-3.042A3.037,3.037,0,0,1,325.8,455.584Zm19.121,0a3.033,3.033,0,1,1-3.033-3.042A3.037,3.037,0,0,1,344.92,455.584Zm19.122,0a3.034,3.034,0,1,1-3.034-3.042A3.038,3.038,0,0,1,364.042,455.584Zm19.121,0a3.034,3.034,0,1,1-3.034-3.042A3.038,3.038,0,0,1,383.163,455.584Zm19.121,0a3.034,3.034,0,1,1-3.034-3.042A3.038,3.038,0,0,1,402.284,455.584Zm19.121,0a3.034,3.034,0,1,1-3.033-3.042A3.037,3.037,0,0,1,421.405,455.584Zm19.121,0a3.033,3.033,0,1,1-3.033-3.042A3.037,3.037,0,0,1,440.526,455.584Zm19.121,0a3.033,3.033,0,1,1-3.033-3.042A3.037,3.037,0,0,1,459.647,455.584Zm19.122,0a3.034,3.034,0,1,1-3.034-3.042A3.038,3.038,0,0,1,478.769,455.584Zm19.121,0a3.034,3.034,0,1,1-3.034-3.042A3.038,3.038,0,0,1,497.89,455.584Zm19.121,0a3.034,3.034,0,1,1-3.034-3.042A3.038,3.038,0,0,1,517.011,455.584ZM211.072,474.311a3.033,3.033,0,1,1-3.033-3.042A3.037,3.037,0,0,1,211.072,474.311Zm19.121,0a3.033,3.033,0,1,1-3.033-3.042A3.037,3.037,0,0,1,230.193,474.311Zm19.122,0a3.034,3.034,0,1,1-3.034-3.042A3.038,3.038,0,0,1,249.315,474.311Zm19.121,0a3.034,3.034,0,1,1-3.034-3.042A3.038,3.038,0,0,1,268.436,474.311Zm19.121,0a3.034,3.034,0,1,1-3.033-3.042A3.037,3.037,0,0,1,287.557,474.311Zm19.121,0a3.034,3.034,0,1,1-3.033-3.042A3.037,3.037,0,0,1,306.678,474.311Zm19.121,0a3.033,3.033,0,1,1-3.033-3.042A3.037,3.037,0,0,1,325.8,474.311Zm19.121,0a3.033,3.033,0,1,1-3.033-3.042A3.037,3.037,0,0,1,344.92,474.311Zm19.122,0a3.034,3.034,0,1,1-3.034-3.042A3.038,3.038,0,0,1,364.042,474.311Zm19.121,0a3.034,3.034,0,1,1-3.034-3.042A3.038,3.038,0,0,1,383.163,474.311Zm19.121,0a3.034,3.034,0,1,1-3.034-3.042A3.038,3.038,0,0,1,402.284,474.311Zm19.121,0a3.034,3.034,0,1,1-3.033-3.042A3.037,3.037,0,0,1,421.405,474.311Zm19.121,0a3.033,3.033,0,1,1-3.033-3.042A3.037,3.037,0,0,1,440.526,474.311Zm19.121,0a3.033,3.033,0,1,1-3.033-3.042A3.037,3.037,0,0,1,459.647,474.311Zm19.122,0a3.034,3.034,0,1,1-3.034-3.042A3.038,3.038,0,0,1,478.769,474.311Zm19.121,0a3.034,3.034,0,1,1-3.034-3.042A3.038,3.038,0,0,1,497.89,474.311Zm19.121,0a3.034,3.034,0,1,1-3.034-3.042A3.038,3.038,0,0,1,517.011,474.311ZM211.072,493.038A3.033,3.033,0,1,1,208.039,490,3.038,3.038,0,0,1,211.072,493.038Zm19.121,0A3.033,3.033,0,1,1,227.16,490,3.038,3.038,0,0,1,230.193,493.038Zm19.122,0A3.034,3.034,0,1,1,246.281,490,3.038,3.038,0,0,1,249.315,493.038Zm19.121,0A3.034,3.034,0,1,1,265.4,490,3.038,3.038,0,0,1,268.436,493.038Zm19.121,0A3.034,3.034,0,1,1,284.524,490,3.038,3.038,0,0,1,287.557,493.038Zm19.121,0A3.034,3.034,0,1,1,303.645,490,3.038,3.038,0,0,1,306.678,493.038Zm19.121,0A3.033,3.033,0,1,1,322.766,490,3.038,3.038,0,0,1,325.8,493.038Zm19.121,0A3.033,3.033,0,1,1,341.887,490,3.038,3.038,0,0,1,344.92,493.038Zm19.122,0A3.034,3.034,0,1,1,361.008,490,3.038,3.038,0,0,1,364.042,493.038Zm19.121,0A3.034,3.034,0,1,1,380.129,490,3.038,3.038,0,0,1,383.163,493.038Zm19.121,0A3.034,3.034,0,1,1,399.25,490,3.038,3.038,0,0,1,402.284,493.038Zm19.121,0A3.034,3.034,0,1,1,418.372,490,3.038,3.038,0,0,1,421.405,493.038Zm19.121,0A3.033,3.033,0,1,1,437.493,490,3.038,3.038,0,0,1,440.526,493.038Zm19.121,0A3.033,3.033,0,1,1,456.614,490,3.038,3.038,0,0,1,459.647,493.038Zm19.122,0A3.034,3.034,0,1,1,475.735,490,3.038,3.038,0,0,1,478.769,493.038Zm19.121,0A3.034,3.034,0,1,1,494.856,490,3.038,3.038,0,0,1,497.89,493.038Zm19.121,0A3.034,3.034,0,1,1,513.977,490,3.038,3.038,0,0,1,517.011,493.038ZM211.072,511.765a3.033,3.033,0,1,1-3.033-3.041A3.038,3.038,0,0,1,211.072,511.765Zm19.121,0a3.033,3.033,0,1,1-3.033-3.041A3.038,3.038,0,0,1,230.193,511.765Zm19.122,0a3.034,3.034,0,1,1-3.034-3.041A3.038,3.038,0,0,1,249.315,511.765Zm19.121,0a3.034,3.034,0,1,1-3.034-3.041A3.038,3.038,0,0,1,268.436,511.765Zm19.121,0a3.034,3.034,0,1,1-3.033-3.041A3.038,3.038,0,0,1,287.557,511.765Zm19.121,0a3.034,3.034,0,1,1-3.033-3.041A3.038,3.038,0,0,1,306.678,511.765Zm19.121,0a3.033,3.033,0,1,1-3.033-3.041A3.038,3.038,0,0,1,325.8,511.765Zm19.121,0a3.033,3.033,0,1,1-3.033-3.041A3.038,3.038,0,0,1,344.92,511.765Zm19.122,0a3.034,3.034,0,1,1-3.034-3.041A3.038,3.038,0,0,1,364.042,511.765Zm19.121,0a3.034,3.034,0,1,1-3.034-3.041A3.038,3.038,0,0,1,383.163,511.765Zm19.121,0a3.034,3.034,0,1,1-3.034-3.041A3.038,3.038,0,0,1,402.284,511.765Zm19.121,0a3.034,3.034,0,1,1-3.033-3.041A3.038,3.038,0,0,1,421.405,511.765Zm19.121,0a3.033,3.033,0,1,1-3.033-3.041A3.038,3.038,0,0,1,440.526,511.765Zm19.121,0a3.033,3.033,0,1,1-3.033-3.041A3.038,3.038,0,0,1,459.647,511.765Zm19.122,0a3.034,3.034,0,1,1-3.034-3.041A3.038,3.038,0,0,1,478.769,511.765Zm19.121,0a3.034,3.034,0,1,1-3.034-3.041A3.038,3.038,0,0,1,497.89,511.765Zm19.121,0a3.034,3.034,0,1,1-3.034-3.041A3.038,3.038,0,0,1,517.011,511.765ZM211.072,530.493a3.033,3.033,0,1,1-3.033-3.041A3.037,3.037,0,0,1,211.072,530.493Zm19.121,0a3.033,3.033,0,1,1-3.033-3.041A3.037,3.037,0,0,1,230.193,530.493Zm19.122,0a3.034,3.034,0,1,1-3.034-3.041A3.037,3.037,0,0,1,249.315,530.493Zm19.121,0a3.034,3.034,0,1,1-3.034-3.041A3.037,3.037,0,0,1,268.436,530.493Zm19.121,0a3.034,3.034,0,1,1-3.033-3.041A3.037,3.037,0,0,1,287.557,530.493Zm19.121,0a3.034,3.034,0,1,1-3.033-3.041A3.037,3.037,0,0,1,306.678,530.493Zm19.121,0a3.033,3.033,0,1,1-3.033-3.041A3.037,3.037,0,0,1,325.8,530.493Zm19.121,0a3.033,3.033,0,1,1-3.033-3.041A3.037,3.037,0,0,1,344.92,530.493Zm19.122,0a3.034,3.034,0,1,1-3.034-3.041A3.038,3.038,0,0,1,364.042,530.493Zm19.121,0a3.034,3.034,0,1,1-3.034-3.041A3.037,3.037,0,0,1,383.163,530.493Zm19.121,0a3.034,3.034,0,1,1-3.034-3.041A3.037,3.037,0,0,1,402.284,530.493Zm19.121,0a3.034,3.034,0,1,1-3.033-3.041A3.037,3.037,0,0,1,421.405,530.493Zm19.121,0a3.033,3.033,0,1,1-3.033-3.041A3.037,3.037,0,0,1,440.526,530.493Zm19.121,0a3.033,3.033,0,1,1-3.033-3.041A3.037,3.037,0,0,1,459.647,530.493Zm19.122,0a3.034,3.034,0,1,1-3.034-3.041A3.038,3.038,0,0,1,478.769,530.493Zm19.121,0a3.034,3.034,0,1,1-3.034-3.041A3.037,3.037,0,0,1,497.89,530.493Zm19.121,0a3.034,3.034,0,1,1-3.034-3.041A3.037,3.037,0,0,1,517.011,530.493ZM211.072,549.22a3.033,3.033,0,1,1-3.033-3.041A3.038,3.038,0,0,1,211.072,549.22Zm19.121,0a3.033,3.033,0,1,1-3.033-3.041A3.038,3.038,0,0,1,230.193,549.22Zm19.122,0a3.034,3.034,0,1,1-3.034-3.041A3.038,3.038,0,0,1,249.315,549.22Zm19.121,0a3.034,3.034,0,1,1-3.034-3.041A3.038,3.038,0,0,1,268.436,549.22Zm19.121,0a3.034,3.034,0,1,1-3.033-3.041A3.038,3.038,0,0,1,287.557,549.22Zm19.121,0a3.034,3.034,0,1,1-3.033-3.041A3.038,3.038,0,0,1,306.678,549.22Zm19.121,0a3.033,3.033,0,1,1-3.033-3.041A3.038,3.038,0,0,1,325.8,549.22Zm19.121,0a3.033,3.033,0,1,1-3.033-3.041A3.038,3.038,0,0,1,344.92,549.22Zm19.122,0a3.034,3.034,0,1,1-3.034-3.041A3.039,3.039,0,0,1,364.042,549.22Zm19.121,0a3.034,3.034,0,1,1-3.034-3.041A3.038,3.038,0,0,1,383.163,549.22Zm19.121,0a3.034,3.034,0,1,1-3.034-3.041A3.038,3.038,0,0,1,402.284,549.22Zm19.121,0a3.034,3.034,0,1,1-3.033-3.041A3.038,3.038,0,0,1,421.405,549.22Zm19.121,0a3.033,3.033,0,1,1-3.033-3.041A3.038,3.038,0,0,1,440.526,549.22Zm19.121,0a3.033,3.033,0,1,1-3.033-3.041A3.038,3.038,0,0,1,459.647,549.22Zm19.122,0a3.034,3.034,0,1,1-3.034-3.041A3.039,3.039,0,0,1,478.769,549.22Zm19.121,0a3.034,3.034,0,1,1-3.034-3.041A3.038,3.038,0,0,1,497.89,549.22Zm19.121,0a3.034,3.034,0,1,1-3.034-3.041A3.038,3.038,0,0,1,517.011,549.22ZM211.072,567.948a3.033,3.033,0,1,1-3.033-3.042A3.037,3.037,0,0,1,211.072,567.948Zm19.121,0a3.033,3.033,0,1,1-3.033-3.042A3.037,3.037,0,0,1,230.193,567.948Zm19.122,0a3.034,3.034,0,1,1-3.034-3.042A3.038,3.038,0,0,1,249.315,567.948Zm19.121,0a3.034,3.034,0,1,1-3.034-3.042A3.038,3.038,0,0,1,268.436,567.948Zm19.121,0a3.034,3.034,0,1,1-3.033-3.042A3.037,3.037,0,0,1,287.557,567.948Zm19.121,0a3.034,3.034,0,1,1-3.033-3.042A3.037,3.037,0,0,1,306.678,567.948Zm19.121,0a3.033,3.033,0,1,1-3.033-3.042A3.037,3.037,0,0,1,325.8,567.948Zm19.121,0a3.033,3.033,0,1,1-3.033-3.042A3.037,3.037,0,0,1,344.92,567.948Zm19.122,0a3.034,3.034,0,1,1-3.034-3.042A3.038,3.038,0,0,1,364.042,567.948Zm19.121,0a3.034,3.034,0,1,1-3.034-3.042A3.038,3.038,0,0,1,383.163,567.948Zm19.121,0a3.034,3.034,0,1,1-3.034-3.042A3.038,3.038,0,0,1,402.284,567.948Zm19.121,0a3.034,3.034,0,1,1-3.033-3.042A3.037,3.037,0,0,1,421.405,567.948Zm19.121,0a3.033,3.033,0,1,1-3.033-3.042A3.037,3.037,0,0,1,440.526,567.948Zm19.121,0a3.033,3.033,0,1,1-3.033-3.042A3.037,3.037,0,0,1,459.647,567.948Zm19.122,0a3.034,3.034,0,1,1-3.034-3.042A3.038,3.038,0,0,1,478.769,567.948Zm19.121,0a3.034,3.034,0,1,1-3.034-3.042A3.038,3.038,0,0,1,497.89,567.948Zm19.121,0a3.034,3.034,0,1,1-3.034-3.042A3.038,3.038,0,0,1,517.011,567.948Z" transform="translate(-205 -284)"/>
</svg>
