<svg xmlns="http://www.w3.org/2000/svg" width="312" height="287" viewBox="0 0 312 287">
  <defs>
    <style>
      .cls-1 {
        fill: #fff;
        fill-rule: evenodd;
      }
    </style>
  </defs>
  <path id="pattern_white.svg" class="cls-1" d="M359.072,8055.04a3.034,3.034,0,1,1-3.033-3.04A3.036,3.036,0,0,1,359.072,8055.04Zm19.121,0a3.034,3.034,0,1,1-3.033-3.04A3.036,3.036,0,0,1,378.193,8055.04Zm19.121,0a3.033,3.033,0,1,1-3.033-3.04A3.036,3.036,0,0,1,397.314,8055.04Zm19.121,0A3.033,3.033,0,1,1,413.4,8052,3.036,3.036,0,0,1,416.435,8055.04Zm19.122,0a3.034,3.034,0,1,1-3.034-3.04A3.036,3.036,0,0,1,435.557,8055.04Zm19.121,0a3.034,3.034,0,1,1-3.034-3.04A3.036,3.036,0,0,1,454.678,8055.04Zm19.121,0a3.034,3.034,0,1,1-3.033-3.04A3.036,3.036,0,0,1,473.8,8055.04Zm19.121,0a3.034,3.034,0,1,1-3.033-3.04A3.036,3.036,0,0,1,492.92,8055.04Zm19.121,0a3.033,3.033,0,1,1-3.033-3.04A3.036,3.036,0,0,1,512.041,8055.04Zm19.121,0a3.033,3.033,0,1,1-3.033-3.04A3.036,3.036,0,0,1,531.162,8055.04Zm19.122,0a3.034,3.034,0,1,1-3.034-3.04A3.037,3.037,0,0,1,550.284,8055.04Zm19.121,0a3.034,3.034,0,1,1-3.034-3.04A3.037,3.037,0,0,1,569.405,8055.04Zm19.121,0a3.034,3.034,0,1,1-3.034-3.04A3.036,3.036,0,0,1,588.526,8055.04Zm19.121,0a3.034,3.034,0,1,1-3.033-3.04A3.036,3.036,0,0,1,607.647,8055.04Zm19.121,0a3.034,3.034,0,1,1-3.033-3.04A3.036,3.036,0,0,1,626.768,8055.04Zm19.121,0a3.033,3.033,0,1,1-3.033-3.04A3.036,3.036,0,0,1,645.889,8055.04Zm19.121,0a3.033,3.033,0,1,1-3.033-3.04A3.036,3.036,0,0,1,665.01,8055.04Zm-305.938,18.73a3.034,3.034,0,1,1-3.033-3.05A3.042,3.042,0,0,1,359.072,8073.77Zm19.121,0a3.034,3.034,0,1,1-3.033-3.05A3.042,3.042,0,0,1,378.193,8073.77Zm19.121,0a3.033,3.033,0,1,1-3.033-3.05A3.042,3.042,0,0,1,397.314,8073.77Zm19.121,0a3.033,3.033,0,1,1-3.033-3.05A3.042,3.042,0,0,1,416.435,8073.77Zm19.122,0a3.034,3.034,0,1,1-3.034-3.05A3.043,3.043,0,0,1,435.557,8073.77Zm19.121,0a3.034,3.034,0,1,1-3.034-3.05A3.043,3.043,0,0,1,454.678,8073.77Zm19.121,0a3.034,3.034,0,1,1-3.033-3.05A3.042,3.042,0,0,1,473.8,8073.77Zm19.121,0a3.034,3.034,0,1,1-3.033-3.05A3.042,3.042,0,0,1,492.92,8073.77Zm19.121,0a3.033,3.033,0,1,1-3.033-3.05A3.042,3.042,0,0,1,512.041,8073.77Zm19.121,0a3.033,3.033,0,1,1-3.033-3.05A3.042,3.042,0,0,1,531.162,8073.77Zm19.122,0a3.034,3.034,0,1,1-3.034-3.05A3.043,3.043,0,0,1,550.284,8073.77Zm19.121,0a3.034,3.034,0,1,1-3.034-3.05A3.043,3.043,0,0,1,569.405,8073.77Zm19.121,0a3.034,3.034,0,1,1-3.034-3.05A3.043,3.043,0,0,1,588.526,8073.77Zm19.121,0a3.034,3.034,0,1,1-3.033-3.05A3.042,3.042,0,0,1,607.647,8073.77Zm19.121,0a3.034,3.034,0,1,1-3.033-3.05A3.042,3.042,0,0,1,626.768,8073.77Zm19.121,0a3.033,3.033,0,1,1-3.033-3.05A3.042,3.042,0,0,1,645.889,8073.77Zm19.121,0a3.033,3.033,0,1,1-3.033-3.05A3.042,3.042,0,0,1,665.01,8073.77Zm-305.938,18.72a3.034,3.034,0,1,1-3.033-3.04A3.036,3.036,0,0,1,359.072,8092.49Zm19.121,0a3.034,3.034,0,1,1-3.033-3.04A3.036,3.036,0,0,1,378.193,8092.49Zm19.121,0a3.033,3.033,0,1,1-3.033-3.04A3.036,3.036,0,0,1,397.314,8092.49Zm19.121,0a3.033,3.033,0,1,1-3.033-3.04A3.036,3.036,0,0,1,416.435,8092.49Zm19.122,0a3.034,3.034,0,1,1-3.034-3.04A3.036,3.036,0,0,1,435.557,8092.49Zm19.121,0a3.034,3.034,0,1,1-3.034-3.04A3.036,3.036,0,0,1,454.678,8092.49Zm19.121,0a3.034,3.034,0,1,1-3.033-3.04A3.036,3.036,0,0,1,473.8,8092.49Zm19.121,0a3.034,3.034,0,1,1-3.033-3.04A3.036,3.036,0,0,1,492.92,8092.49Zm19.121,0a3.033,3.033,0,1,1-3.033-3.04A3.036,3.036,0,0,1,512.041,8092.49Zm19.121,0a3.033,3.033,0,1,1-3.033-3.04A3.036,3.036,0,0,1,531.162,8092.49Zm19.122,0a3.034,3.034,0,1,1-3.034-3.04A3.037,3.037,0,0,1,550.284,8092.49Zm19.121,0a3.034,3.034,0,1,1-3.034-3.04A3.037,3.037,0,0,1,569.405,8092.49Zm19.121,0a3.034,3.034,0,1,1-3.034-3.04A3.036,3.036,0,0,1,588.526,8092.49Zm19.121,0a3.034,3.034,0,1,1-3.033-3.04A3.036,3.036,0,0,1,607.647,8092.49Zm19.121,0a3.034,3.034,0,1,1-3.033-3.04A3.036,3.036,0,0,1,626.768,8092.49Zm19.121,0a3.033,3.033,0,1,1-3.033-3.04A3.036,3.036,0,0,1,645.889,8092.49Zm19.121,0a3.033,3.033,0,1,1-3.033-3.04A3.036,3.036,0,0,1,665.01,8092.49Zm-305.938,18.73a3.034,3.034,0,1,1-3.033-3.04A3.036,3.036,0,0,1,359.072,8111.22Zm19.121,0a3.034,3.034,0,1,1-3.033-3.04A3.036,3.036,0,0,1,378.193,8111.22Zm19.121,0a3.033,3.033,0,1,1-3.033-3.04A3.036,3.036,0,0,1,397.314,8111.22Zm19.121,0a3.033,3.033,0,1,1-3.033-3.04A3.036,3.036,0,0,1,416.435,8111.22Zm19.122,0a3.034,3.034,0,1,1-3.034-3.04A3.036,3.036,0,0,1,435.557,8111.22Zm19.121,0a3.034,3.034,0,1,1-3.034-3.04A3.036,3.036,0,0,1,454.678,8111.22Zm19.121,0a3.034,3.034,0,1,1-3.033-3.04A3.036,3.036,0,0,1,473.8,8111.22Zm19.121,0a3.034,3.034,0,1,1-3.033-3.04A3.036,3.036,0,0,1,492.92,8111.22Zm19.121,0a3.033,3.033,0,1,1-3.033-3.04A3.036,3.036,0,0,1,512.041,8111.22Zm19.121,0a3.033,3.033,0,1,1-3.033-3.04A3.036,3.036,0,0,1,531.162,8111.22Zm19.122,0a3.034,3.034,0,1,1-3.034-3.04A3.037,3.037,0,0,1,550.284,8111.22Zm19.121,0a3.034,3.034,0,1,1-3.034-3.04A3.037,3.037,0,0,1,569.405,8111.22Zm19.121,0a3.034,3.034,0,1,1-3.034-3.04A3.036,3.036,0,0,1,588.526,8111.22Zm19.121,0a3.034,3.034,0,1,1-3.033-3.04A3.036,3.036,0,0,1,607.647,8111.22Zm19.121,0a3.034,3.034,0,1,1-3.033-3.04A3.036,3.036,0,0,1,626.768,8111.22Zm19.121,0a3.033,3.033,0,1,1-3.033-3.04A3.036,3.036,0,0,1,645.889,8111.22Zm19.121,0a3.033,3.033,0,1,1-3.033-3.04A3.036,3.036,0,0,1,665.01,8111.22Zm-305.938,18.73a3.034,3.034,0,1,1-3.033-3.04A3.036,3.036,0,0,1,359.072,8129.95Zm19.121,0a3.034,3.034,0,1,1-3.033-3.04A3.036,3.036,0,0,1,378.193,8129.95Zm19.121,0a3.033,3.033,0,1,1-3.033-3.04A3.036,3.036,0,0,1,397.314,8129.95Zm19.121,0a3.033,3.033,0,1,1-3.033-3.04A3.036,3.036,0,0,1,416.435,8129.95Zm19.122,0a3.034,3.034,0,1,1-3.034-3.04A3.036,3.036,0,0,1,435.557,8129.95Zm19.121,0a3.034,3.034,0,1,1-3.034-3.04A3.036,3.036,0,0,1,454.678,8129.95Zm19.121,0a3.034,3.034,0,1,1-3.033-3.04A3.036,3.036,0,0,1,473.8,8129.95Zm19.121,0a3.034,3.034,0,1,1-3.033-3.04A3.036,3.036,0,0,1,492.92,8129.95Zm19.121,0a3.033,3.033,0,1,1-3.033-3.04A3.036,3.036,0,0,1,512.041,8129.95Zm19.121,0a3.033,3.033,0,1,1-3.033-3.04A3.036,3.036,0,0,1,531.162,8129.95Zm19.122,0a3.034,3.034,0,1,1-3.034-3.04A3.037,3.037,0,0,1,550.284,8129.95Zm19.121,0a3.034,3.034,0,1,1-3.034-3.04A3.037,3.037,0,0,1,569.405,8129.95Zm19.121,0a3.034,3.034,0,1,1-3.034-3.04A3.036,3.036,0,0,1,588.526,8129.95Zm19.121,0a3.034,3.034,0,1,1-3.033-3.04A3.036,3.036,0,0,1,607.647,8129.95Zm19.121,0a3.034,3.034,0,1,1-3.033-3.04A3.036,3.036,0,0,1,626.768,8129.95Zm19.121,0a3.033,3.033,0,1,1-3.033-3.04A3.036,3.036,0,0,1,645.889,8129.95Zm19.121,0a3.033,3.033,0,1,1-3.033-3.04A3.036,3.036,0,0,1,665.01,8129.95Zm-305.938,18.72a3.034,3.034,0,1,1-3.033-3.04A3.044,3.044,0,0,1,359.072,8148.67Zm19.121,0a3.034,3.034,0,1,1-3.033-3.04A3.044,3.044,0,0,1,378.193,8148.67Zm19.121,0a3.033,3.033,0,1,1-3.033-3.04A3.044,3.044,0,0,1,397.314,8148.67Zm19.121,0a3.033,3.033,0,1,1-3.033-3.04A3.044,3.044,0,0,1,416.435,8148.67Zm19.122,0a3.034,3.034,0,1,1-3.034-3.04A3.045,3.045,0,0,1,435.557,8148.67Zm19.121,0a3.034,3.034,0,1,1-3.034-3.04A3.045,3.045,0,0,1,454.678,8148.67Zm19.121,0a3.034,3.034,0,1,1-3.033-3.04A3.044,3.044,0,0,1,473.8,8148.67Zm19.121,0a3.034,3.034,0,1,1-3.033-3.04A3.044,3.044,0,0,1,492.92,8148.67Zm19.121,0a3.033,3.033,0,1,1-3.033-3.04A3.044,3.044,0,0,1,512.041,8148.67Zm19.121,0a3.033,3.033,0,1,1-3.033-3.04A3.044,3.044,0,0,1,531.162,8148.67Zm19.122,0a3.034,3.034,0,1,1-3.034-3.04A3.045,3.045,0,0,1,550.284,8148.67Zm19.121,0a3.034,3.034,0,1,1-3.034-3.04A3.045,3.045,0,0,1,569.405,8148.67Zm19.121,0a3.034,3.034,0,1,1-3.034-3.04A3.045,3.045,0,0,1,588.526,8148.67Zm19.121,0a3.034,3.034,0,1,1-3.033-3.04A3.044,3.044,0,0,1,607.647,8148.67Zm19.121,0a3.034,3.034,0,1,1-3.033-3.04A3.044,3.044,0,0,1,626.768,8148.67Zm19.121,0a3.033,3.033,0,1,1-3.033-3.04A3.044,3.044,0,0,1,645.889,8148.67Zm19.121,0a3.033,3.033,0,1,1-3.033-3.04A3.044,3.044,0,0,1,665.01,8148.67ZM359.072,8167.4a3.034,3.034,0,1,1-3.033-3.04A3.036,3.036,0,0,1,359.072,8167.4Zm19.121,0a3.034,3.034,0,1,1-3.033-3.04A3.036,3.036,0,0,1,378.193,8167.4Zm19.121,0a3.033,3.033,0,1,1-3.033-3.04A3.036,3.036,0,0,1,397.314,8167.4Zm19.121,0a3.033,3.033,0,1,1-3.033-3.04A3.036,3.036,0,0,1,416.435,8167.4Zm19.122,0a3.034,3.034,0,1,1-3.034-3.04A3.036,3.036,0,0,1,435.557,8167.4Zm19.121,0a3.034,3.034,0,1,1-3.034-3.04A3.036,3.036,0,0,1,454.678,8167.4Zm19.121,0a3.034,3.034,0,1,1-3.033-3.04A3.036,3.036,0,0,1,473.8,8167.4Zm19.121,0a3.034,3.034,0,1,1-3.033-3.04A3.036,3.036,0,0,1,492.92,8167.4Zm19.121,0a3.033,3.033,0,1,1-3.033-3.04A3.036,3.036,0,0,1,512.041,8167.4Zm19.121,0a3.033,3.033,0,1,1-3.033-3.04A3.036,3.036,0,0,1,531.162,8167.4Zm19.122,0a3.034,3.034,0,1,1-3.034-3.04A3.037,3.037,0,0,1,550.284,8167.4Zm19.121,0a3.034,3.034,0,1,1-3.034-3.04A3.037,3.037,0,0,1,569.405,8167.4Zm19.121,0a3.034,3.034,0,1,1-3.034-3.04A3.036,3.036,0,0,1,588.526,8167.4Zm19.121,0a3.034,3.034,0,1,1-3.033-3.04A3.036,3.036,0,0,1,607.647,8167.4Zm19.121,0a3.034,3.034,0,1,1-3.033-3.04A3.036,3.036,0,0,1,626.768,8167.4Zm19.121,0a3.033,3.033,0,1,1-3.033-3.04A3.036,3.036,0,0,1,645.889,8167.4Zm19.121,0a3.033,3.033,0,1,1-3.033-3.04A3.036,3.036,0,0,1,665.01,8167.4Zm-305.938,18.73a3.034,3.034,0,1,1-3.033-3.04A3.036,3.036,0,0,1,359.072,8186.13Zm19.121,0a3.034,3.034,0,1,1-3.033-3.04A3.036,3.036,0,0,1,378.193,8186.13Zm19.121,0a3.033,3.033,0,1,1-3.033-3.04A3.036,3.036,0,0,1,397.314,8186.13Zm19.121,0a3.033,3.033,0,1,1-3.033-3.04A3.036,3.036,0,0,1,416.435,8186.13Zm19.122,0a3.034,3.034,0,1,1-3.034-3.04A3.036,3.036,0,0,1,435.557,8186.13Zm19.121,0a3.034,3.034,0,1,1-3.034-3.04A3.036,3.036,0,0,1,454.678,8186.13Zm19.121,0a3.034,3.034,0,1,1-3.033-3.04A3.036,3.036,0,0,1,473.8,8186.13Zm19.121,0a3.034,3.034,0,1,1-3.033-3.04A3.036,3.036,0,0,1,492.92,8186.13Zm19.121,0a3.033,3.033,0,1,1-3.033-3.04A3.036,3.036,0,0,1,512.041,8186.13Zm19.121,0a3.033,3.033,0,1,1-3.033-3.04A3.036,3.036,0,0,1,531.162,8186.13Zm19.122,0a3.034,3.034,0,1,1-3.034-3.04A3.037,3.037,0,0,1,550.284,8186.13Zm19.121,0a3.034,3.034,0,1,1-3.034-3.04A3.037,3.037,0,0,1,569.405,8186.13Zm19.121,0a3.034,3.034,0,1,1-3.034-3.04A3.036,3.036,0,0,1,588.526,8186.13Zm19.121,0a3.034,3.034,0,1,1-3.033-3.04A3.036,3.036,0,0,1,607.647,8186.13Zm19.121,0a3.034,3.034,0,1,1-3.033-3.04A3.036,3.036,0,0,1,626.768,8186.13Zm19.121,0a3.033,3.033,0,1,1-3.033-3.04A3.036,3.036,0,0,1,645.889,8186.13Zm19.121,0a3.033,3.033,0,1,1-3.033-3.04A3.036,3.036,0,0,1,665.01,8186.13Zm-305.938,18.73a3.034,3.034,0,1,1-3.033-3.05A3.036,3.036,0,0,1,359.072,8204.86Zm19.121,0a3.034,3.034,0,1,1-3.033-3.05A3.036,3.036,0,0,1,378.193,8204.86Zm19.121,0a3.033,3.033,0,1,1-3.033-3.05A3.036,3.036,0,0,1,397.314,8204.86Zm19.121,0a3.033,3.033,0,1,1-3.033-3.05A3.036,3.036,0,0,1,416.435,8204.86Zm19.122,0a3.034,3.034,0,1,1-3.034-3.05A3.036,3.036,0,0,1,435.557,8204.86Zm19.121,0a3.034,3.034,0,1,1-3.034-3.05A3.036,3.036,0,0,1,454.678,8204.86Zm19.121,0a3.034,3.034,0,1,1-3.033-3.05A3.036,3.036,0,0,1,473.8,8204.86Zm19.121,0a3.034,3.034,0,1,1-3.033-3.05A3.036,3.036,0,0,1,492.92,8204.86Zm19.121,0a3.033,3.033,0,1,1-3.033-3.05A3.036,3.036,0,0,1,512.041,8204.86Zm19.121,0a3.033,3.033,0,1,1-3.033-3.05A3.036,3.036,0,0,1,531.162,8204.86Zm19.122,0a3.034,3.034,0,1,1-3.034-3.05A3.037,3.037,0,0,1,550.284,8204.86Zm19.121,0a3.034,3.034,0,1,1-3.034-3.05A3.037,3.037,0,0,1,569.405,8204.86Zm19.121,0a3.034,3.034,0,1,1-3.034-3.05A3.036,3.036,0,0,1,588.526,8204.86Zm19.121,0a3.034,3.034,0,1,1-3.033-3.05A3.036,3.036,0,0,1,607.647,8204.86Zm19.121,0a3.034,3.034,0,1,1-3.033-3.05A3.036,3.036,0,0,1,626.768,8204.86Zm19.121,0a3.033,3.033,0,1,1-3.033-3.05A3.036,3.036,0,0,1,645.889,8204.86Zm19.121,0a3.033,3.033,0,1,1-3.033-3.05A3.036,3.036,0,0,1,665.01,8204.86Zm-305.938,18.72a3.034,3.034,0,1,1-3.033-3.04A3.036,3.036,0,0,1,359.072,8223.58Zm19.121,0a3.034,3.034,0,1,1-3.033-3.04A3.036,3.036,0,0,1,378.193,8223.58Zm19.121,0a3.033,3.033,0,1,1-3.033-3.04A3.036,3.036,0,0,1,397.314,8223.58Zm19.121,0a3.033,3.033,0,1,1-3.033-3.04A3.036,3.036,0,0,1,416.435,8223.58Zm19.122,0a3.034,3.034,0,1,1-3.034-3.04A3.036,3.036,0,0,1,435.557,8223.58Zm19.121,0a3.034,3.034,0,1,1-3.034-3.04A3.036,3.036,0,0,1,454.678,8223.58Zm19.121,0a3.034,3.034,0,1,1-3.033-3.04A3.036,3.036,0,0,1,473.8,8223.58Zm19.121,0a3.034,3.034,0,1,1-3.033-3.04A3.036,3.036,0,0,1,492.92,8223.58Zm19.121,0a3.033,3.033,0,1,1-3.033-3.04A3.036,3.036,0,0,1,512.041,8223.58Zm19.121,0a3.033,3.033,0,1,1-3.033-3.04A3.036,3.036,0,0,1,531.162,8223.58Zm19.122,0a3.034,3.034,0,1,1-3.034-3.04A3.037,3.037,0,0,1,550.284,8223.58Zm19.121,0a3.034,3.034,0,1,1-3.034-3.04A3.037,3.037,0,0,1,569.405,8223.58Zm19.121,0a3.034,3.034,0,1,1-3.034-3.04A3.036,3.036,0,0,1,588.526,8223.58Zm19.121,0a3.034,3.034,0,1,1-3.033-3.04A3.036,3.036,0,0,1,607.647,8223.58Zm19.121,0a3.034,3.034,0,1,1-3.033-3.04A3.036,3.036,0,0,1,626.768,8223.58Zm19.121,0a3.033,3.033,0,1,1-3.033-3.04A3.036,3.036,0,0,1,645.889,8223.58Zm19.121,0a3.033,3.033,0,1,1-3.033-3.04A3.036,3.036,0,0,1,665.01,8223.58Zm-305.938,18.73a3.034,3.034,0,1,1-3.033-3.04A3.036,3.036,0,0,1,359.072,8242.31Zm19.121,0a3.034,3.034,0,1,1-3.033-3.04A3.036,3.036,0,0,1,378.193,8242.31Zm19.121,0a3.033,3.033,0,1,1-3.033-3.04A3.036,3.036,0,0,1,397.314,8242.31Zm19.121,0a3.033,3.033,0,1,1-3.033-3.04A3.036,3.036,0,0,1,416.435,8242.31Zm19.122,0a3.034,3.034,0,1,1-3.034-3.04A3.036,3.036,0,0,1,435.557,8242.31Zm19.121,0a3.034,3.034,0,1,1-3.034-3.04A3.036,3.036,0,0,1,454.678,8242.31Zm19.121,0a3.034,3.034,0,1,1-3.033-3.04A3.036,3.036,0,0,1,473.8,8242.31Zm19.121,0a3.034,3.034,0,1,1-3.033-3.04A3.036,3.036,0,0,1,492.92,8242.31Zm19.121,0a3.033,3.033,0,1,1-3.033-3.04A3.036,3.036,0,0,1,512.041,8242.31Zm19.121,0a3.033,3.033,0,1,1-3.033-3.04A3.036,3.036,0,0,1,531.162,8242.31Zm19.122,0a3.034,3.034,0,1,1-3.034-3.04A3.037,3.037,0,0,1,550.284,8242.31Zm19.121,0a3.034,3.034,0,1,1-3.034-3.04A3.037,3.037,0,0,1,569.405,8242.31Zm19.121,0a3.034,3.034,0,1,1-3.034-3.04A3.036,3.036,0,0,1,588.526,8242.31Zm19.121,0a3.034,3.034,0,1,1-3.033-3.04A3.036,3.036,0,0,1,607.647,8242.31Zm19.121,0a3.034,3.034,0,1,1-3.033-3.04A3.036,3.036,0,0,1,626.768,8242.31Zm19.121,0a3.033,3.033,0,1,1-3.033-3.04A3.036,3.036,0,0,1,645.889,8242.31Zm19.121,0a3.033,3.033,0,1,1-3.033-3.04A3.036,3.036,0,0,1,665.01,8242.31Zm-305.938,18.73a3.034,3.034,0,1,1-3.033-3.04A3.036,3.036,0,0,1,359.072,8261.04Zm19.121,0a3.034,3.034,0,1,1-3.033-3.04A3.036,3.036,0,0,1,378.193,8261.04Zm19.121,0a3.033,3.033,0,1,1-3.033-3.04A3.036,3.036,0,0,1,397.314,8261.04Zm19.121,0A3.033,3.033,0,1,1,413.4,8258,3.036,3.036,0,0,1,416.435,8261.04Zm19.122,0a3.034,3.034,0,1,1-3.034-3.04A3.036,3.036,0,0,1,435.557,8261.04Zm19.121,0a3.034,3.034,0,1,1-3.034-3.04A3.036,3.036,0,0,1,454.678,8261.04Zm19.121,0a3.034,3.034,0,1,1-3.033-3.04A3.036,3.036,0,0,1,473.8,8261.04Zm19.121,0a3.034,3.034,0,1,1-3.033-3.04A3.036,3.036,0,0,1,492.92,8261.04Zm19.121,0a3.033,3.033,0,1,1-3.033-3.04A3.036,3.036,0,0,1,512.041,8261.04Zm19.121,0a3.033,3.033,0,1,1-3.033-3.04A3.036,3.036,0,0,1,531.162,8261.04Zm19.122,0a3.034,3.034,0,1,1-3.034-3.04A3.037,3.037,0,0,1,550.284,8261.04Zm19.121,0a3.034,3.034,0,1,1-3.034-3.04A3.037,3.037,0,0,1,569.405,8261.04Zm19.121,0a3.034,3.034,0,1,1-3.034-3.04A3.036,3.036,0,0,1,588.526,8261.04Zm19.121,0a3.034,3.034,0,1,1-3.033-3.04A3.036,3.036,0,0,1,607.647,8261.04Zm19.121,0a3.034,3.034,0,1,1-3.033-3.04A3.036,3.036,0,0,1,626.768,8261.04Zm19.121,0a3.033,3.033,0,1,1-3.033-3.04A3.036,3.036,0,0,1,645.889,8261.04Zm19.121,0a3.033,3.033,0,1,1-3.033-3.04A3.036,3.036,0,0,1,665.01,8261.04Zm-305.938,18.72a3.034,3.034,0,1,1-3.033-3.04A3.044,3.044,0,0,1,359.072,8279.76Zm19.121,0a3.034,3.034,0,1,1-3.033-3.04A3.044,3.044,0,0,1,378.193,8279.76Zm19.121,0a3.033,3.033,0,1,1-3.033-3.04A3.044,3.044,0,0,1,397.314,8279.76Zm19.121,0a3.033,3.033,0,1,1-3.033-3.04A3.044,3.044,0,0,1,416.435,8279.76Zm19.122,0a3.034,3.034,0,1,1-3.034-3.04A3.045,3.045,0,0,1,435.557,8279.76Zm19.121,0a3.034,3.034,0,1,1-3.034-3.04A3.045,3.045,0,0,1,454.678,8279.76Zm19.121,0a3.034,3.034,0,1,1-3.033-3.04A3.044,3.044,0,0,1,473.8,8279.76Zm19.121,0a3.034,3.034,0,1,1-3.033-3.04A3.044,3.044,0,0,1,492.92,8279.76Zm19.121,0a3.033,3.033,0,1,1-3.033-3.04A3.044,3.044,0,0,1,512.041,8279.76Zm19.121,0a3.033,3.033,0,1,1-3.033-3.04A3.044,3.044,0,0,1,531.162,8279.76Zm19.122,0a3.034,3.034,0,1,1-3.034-3.04A3.045,3.045,0,0,1,550.284,8279.76Zm19.121,0a3.034,3.034,0,1,1-3.034-3.04A3.045,3.045,0,0,1,569.405,8279.76Zm19.121,0a3.034,3.034,0,1,1-3.034-3.04A3.045,3.045,0,0,1,588.526,8279.76Zm19.121,0a3.034,3.034,0,1,1-3.033-3.04A3.044,3.044,0,0,1,607.647,8279.76Zm19.121,0a3.034,3.034,0,1,1-3.033-3.04A3.044,3.044,0,0,1,626.768,8279.76Zm19.121,0a3.033,3.033,0,1,1-3.033-3.04A3.044,3.044,0,0,1,645.889,8279.76Zm19.121,0a3.033,3.033,0,1,1-3.033-3.04A3.044,3.044,0,0,1,665.01,8279.76Zm-305.938,18.73a3.034,3.034,0,1,1-3.033-3.04A3.036,3.036,0,0,1,359.072,8298.49Zm19.121,0a3.034,3.034,0,1,1-3.033-3.04A3.036,3.036,0,0,1,378.193,8298.49Zm19.121,0a3.033,3.033,0,1,1-3.033-3.04A3.036,3.036,0,0,1,397.314,8298.49Zm19.121,0a3.033,3.033,0,1,1-3.033-3.04A3.036,3.036,0,0,1,416.435,8298.49Zm19.122,0a3.034,3.034,0,1,1-3.034-3.04A3.036,3.036,0,0,1,435.557,8298.49Zm19.121,0a3.034,3.034,0,1,1-3.034-3.04A3.036,3.036,0,0,1,454.678,8298.49Zm19.121,0a3.034,3.034,0,1,1-3.033-3.04A3.036,3.036,0,0,1,473.8,8298.49Zm19.121,0a3.034,3.034,0,1,1-3.033-3.04A3.036,3.036,0,0,1,492.92,8298.49Zm19.121,0a3.033,3.033,0,1,1-3.033-3.04A3.036,3.036,0,0,1,512.041,8298.49Zm19.121,0a3.033,3.033,0,1,1-3.033-3.04A3.036,3.036,0,0,1,531.162,8298.49Zm19.122,0a3.034,3.034,0,1,1-3.034-3.04A3.037,3.037,0,0,1,550.284,8298.49Zm19.121,0a3.034,3.034,0,1,1-3.034-3.04A3.037,3.037,0,0,1,569.405,8298.49Zm19.121,0a3.034,3.034,0,1,1-3.034-3.04A3.036,3.036,0,0,1,588.526,8298.49Zm19.121,0a3.034,3.034,0,1,1-3.033-3.04A3.036,3.036,0,0,1,607.647,8298.49Zm19.121,0a3.034,3.034,0,1,1-3.033-3.04A3.036,3.036,0,0,1,626.768,8298.49Zm19.121,0a3.033,3.033,0,1,1-3.033-3.04A3.036,3.036,0,0,1,645.889,8298.49Zm19.121,0a3.033,3.033,0,1,1-3.033-3.04A3.036,3.036,0,0,1,665.01,8298.49Zm-305.938,18.73a3.034,3.034,0,1,1-3.033-3.04A3.036,3.036,0,0,1,359.072,8317.22Zm19.121,0a3.034,3.034,0,1,1-3.033-3.04A3.036,3.036,0,0,1,378.193,8317.22Zm19.121,0a3.033,3.033,0,1,1-3.033-3.04A3.036,3.036,0,0,1,397.314,8317.22Zm19.121,0a3.033,3.033,0,1,1-3.033-3.04A3.036,3.036,0,0,1,416.435,8317.22Zm19.122,0a3.034,3.034,0,1,1-3.034-3.04A3.036,3.036,0,0,1,435.557,8317.22Zm19.121,0a3.034,3.034,0,1,1-3.034-3.04A3.036,3.036,0,0,1,454.678,8317.22Zm19.121,0a3.034,3.034,0,1,1-3.033-3.04A3.036,3.036,0,0,1,473.8,8317.22Zm19.121,0a3.034,3.034,0,1,1-3.033-3.04A3.036,3.036,0,0,1,492.92,8317.22Zm19.121,0a3.033,3.033,0,1,1-3.033-3.04A3.036,3.036,0,0,1,512.041,8317.22Zm19.121,0a3.033,3.033,0,1,1-3.033-3.04A3.036,3.036,0,0,1,531.162,8317.22Zm19.122,0a3.034,3.034,0,1,1-3.034-3.04A3.037,3.037,0,0,1,550.284,8317.22Zm19.121,0a3.034,3.034,0,1,1-3.034-3.04A3.037,3.037,0,0,1,569.405,8317.22Zm19.121,0a3.034,3.034,0,1,1-3.034-3.04A3.036,3.036,0,0,1,588.526,8317.22Zm19.121,0a3.034,3.034,0,1,1-3.033-3.04A3.036,3.036,0,0,1,607.647,8317.22Zm19.121,0a3.034,3.034,0,1,1-3.033-3.04A3.036,3.036,0,0,1,626.768,8317.22Zm19.121,0a3.033,3.033,0,1,1-3.033-3.04A3.036,3.036,0,0,1,645.889,8317.22Zm19.121,0a3.033,3.033,0,1,1-3.033-3.04A3.036,3.036,0,0,1,665.01,8317.22Zm-305.938,18.73a3.034,3.034,0,1,1-3.033-3.04A3.036,3.036,0,0,1,359.072,8335.95Zm19.121,0a3.034,3.034,0,1,1-3.033-3.04A3.036,3.036,0,0,1,378.193,8335.95Zm19.121,0a3.033,3.033,0,1,1-3.033-3.04A3.036,3.036,0,0,1,397.314,8335.95Zm19.121,0a3.033,3.033,0,1,1-3.033-3.04A3.036,3.036,0,0,1,416.435,8335.95Zm19.122,0a3.034,3.034,0,1,1-3.034-3.04A3.036,3.036,0,0,1,435.557,8335.95Zm19.121,0a3.034,3.034,0,1,1-3.034-3.04A3.036,3.036,0,0,1,454.678,8335.95Zm19.121,0a3.034,3.034,0,1,1-3.033-3.04A3.036,3.036,0,0,1,473.8,8335.95Zm19.121,0a3.034,3.034,0,1,1-3.033-3.04A3.036,3.036,0,0,1,492.92,8335.95Zm19.121,0a3.033,3.033,0,1,1-3.033-3.04A3.036,3.036,0,0,1,512.041,8335.95Zm19.121,0a3.033,3.033,0,1,1-3.033-3.04A3.036,3.036,0,0,1,531.162,8335.95Zm19.122,0a3.034,3.034,0,1,1-3.034-3.04A3.037,3.037,0,0,1,550.284,8335.95Zm19.121,0a3.034,3.034,0,1,1-3.034-3.04A3.037,3.037,0,0,1,569.405,8335.95Zm19.121,0a3.034,3.034,0,1,1-3.034-3.04A3.036,3.036,0,0,1,588.526,8335.95Zm19.121,0a3.034,3.034,0,1,1-3.033-3.04A3.036,3.036,0,0,1,607.647,8335.95Zm19.121,0a3.034,3.034,0,1,1-3.033-3.04A3.036,3.036,0,0,1,626.768,8335.95Zm19.121,0a3.033,3.033,0,1,1-3.033-3.04A3.036,3.036,0,0,1,645.889,8335.95Zm19.121,0a3.033,3.033,0,1,1-3.033-3.04A3.036,3.036,0,0,1,665.01,8335.95Z" transform="translate(-353 -8052)"/>
</svg>
